<svg width="1920" height="317" viewBox="0 0 1920 317" fill="none" xmlns="http://www.w3.org/2000/svg">
<path fill-rule="evenodd" clip-rule="evenodd" d="M573.7 0.367479C573.173 0.503496 571.546 1.5213 570.084 2.6296C566.977 4.98534 563.745 6.2069 560.621 6.2069C558.552 6.2069 558.143 6.4598 554.902 9.73766C550.614 14.0757 549.397 14.4662 539.532 14.6643L532.3 14.8101L527.91 17.0728L523.519 19.3349L517.062 19.203C512.248 19.1042 508.24 19.4145 501.307 20.422C496.194 21.1652 489.918 21.8173 487.361 21.8716C483.288 21.958 482.231 21.7801 478.838 20.438C475.196 18.9982 474.529 18.9061 467.732 18.9051C461.789 18.9046 459.781 19.1104 456.467 20.0615C450.62 21.7387 448.178 23.1827 442.68 28.2168C432.109 37.8942 427.165 41.1193 421.956 41.7368C419.203 42.0637 414.565 41.3898 407.813 39.6816C402.415 38.3162 397.553 38.279 395.157 39.5849C393.758 40.3477 392.241 40.5784 388.442 40.6068C384.388 40.6368 383.102 40.8545 381.043 41.8599C378.55 43.0768 378.55 43.0768 374.844 42.1811C369.648 40.9254 362.486 40.2562 358.224 40.6285C352.481 41.1307 345.324 42.3295 342.656 43.2361C340.246 44.0553 335.538 44.0491 333.616 43.2232C332.992 42.9553 332.371 43.4466 331.257 45.0907C329.804 47.236 329.653 47.3166 327.369 47.1718C326.062 47.0886 321.429 47.3787 317.073 47.8162C312.717 48.2538 308.077 48.6127 306.761 48.6137C305.33 48.6147 303.257 49.1226 301.596 49.8798C297.047 51.9526 290.504 53.6148 281.228 55.0541C271.561 56.5539 265.008 57.9828 262.033 59.2401C260.369 59.9429 259.641 59.9724 257.105 59.4403C252.437 58.4597 248.907 59.0756 243.339 61.8425C238.712 64.1414 238.315 64.2458 235.075 64.0095C233.049 63.8621 228.951 62.8645 224.956 61.5467C216.231 58.6686 212.054 58.3356 206.003 60.0335C202.135 61.1185 200.615 61.24 190.605 61.2617C179.93 61.285 179.431 61.2411 177.748 60.1224C175.457 58.5993 173.017 58.6578 169.169 60.3288C167.464 61.0688 164.726 62.1456 163.085 62.7207L160.101 63.7669L156.282 61.8006L152.464 59.8338L147.902 60.2729C145.394 60.5149 141.463 60.7254 139.168 60.7409C135.443 60.7658 134.803 60.6235 133.227 59.4211C130.727 57.5138 129.79 57.3374 126.385 58.1359C123.213 58.8796 121.649 58.7426 120.328 57.6053C119.648 57.0199 119.254 57.099 117.745 58.124C116.766 58.7896 113.918 60.441 111.417 61.7944L106.869 64.2546L103.927 63.3004C100.041 62.0406 92.6678 62.0396 89.1883 63.2984L86.6898 64.2019L83.7413 61.3864C80.233 58.0356 77.2716 56.4215 73.898 56.0217C71.1691 55.698 67.2527 56.7551 65.1312 58.3883C64.124 59.1636 63.5516 59.2541 62.1348 58.8626C59.6001 58.1618 57.2859 59.1129 54.6634 61.9325C41.9342 75.6201 41.5752 75.8223 27.083 77.4679C24.836 77.7234 20.2662 77.6288 15.2025 77.2223C7.31274 76.5893 3.67625 76.6963 1.16223 77.635L0 78.0684V182.257C0 282.767 0.0335755 286.457 0.945278 286.746C1.48713 286.919 3.56468 286.273 5.81114 285.233C10.6424 282.998 14.3414 282.168 17.8477 282.53C21.3912 282.896 24.0793 284.334 28.1879 288.062C32.1839 291.688 34.0218 292.25 37.5146 290.914C38.8045 290.422 41.5933 288.59 43.7116 286.845C45.8305 285.099 48.6302 282.872 49.9334 281.895C52.1794 280.211 52.3395 280.167 52.9955 281.066C53.6474 281.958 53.7197 281.932 54.2208 280.611C54.5142 279.84 54.7538 279.033 54.7538 278.818C54.7538 278.604 55.1102 277.227 55.5462 275.758C56.7193 271.802 57.6744 271.513 62.0289 273.796C66.1948 275.981 67.357 276.093 68.4557 274.414C69.6112 272.649 71.5591 272.008 75.441 272.119C78.61 272.208 79.0191 272.082 81.8978 270.133C92.4617 262.979 103.595 258.848 114.331 258.098C119.475 257.739 120.598 257.472 124.746 255.624C132.161 252.32 135.528 251.617 143.858 251.639C152.641 251.661 155.932 252.443 159.795 255.427C164.023 258.693 166.935 259.777 172.184 260.041C176.718 260.269 184.19 259.357 184.712 258.512C185.422 257.362 188.475 258.167 191.868 260.398C196.56 263.483 198.004 263.474 199.935 260.347C200.771 258.991 201.369 258.588 202.541 258.588C204.953 258.588 209.315 260.346 213.285 262.918C219.031 266.639 220.794 267.371 225.349 267.924C240.104 269.717 239.854 269.594 249.416 279.699C253.285 283.787 257.409 287.694 258.58 288.382C260.548 289.537 261.168 289.622 266.671 289.496C272.156 289.371 272.758 289.453 274.212 290.524C275.205 291.254 276.533 291.688 277.78 291.688C280.461 291.688 283.391 293.668 288.434 298.888C290.675 301.208 293.528 303.704 294.773 304.435C296.971 305.725 297.317 305.765 306.745 305.836C315.491 305.903 316.641 305.809 318.342 304.895L320.23 303.88L323.524 305.641L326.817 307.403L329.309 305.752C330.679 304.843 332.225 304.1 332.744 304.1C333.967 304.1 335.446 305.604 336.764 308.191C337.577 309.786 338.258 310.379 339.756 310.795C342.448 311.544 348.805 311.457 356.297 310.568C360.985 310.012 363.656 309.946 366.56 310.315C374.209 311.286 383.187 311.453 396.798 310.88C408.339 310.394 411.03 310.417 413.361 311.025C417.908 312.211 420.148 311.492 434.162 304.351C441.082 300.824 447.82 297.116 449.136 296.111C454.761 291.812 462.927 291.384 480.838 294.451C486.91 295.491 492.748 296.342 493.811 296.342C494.97 296.342 496.277 296.762 497.075 297.39C500.468 300.062 505.327 300.644 512.155 299.195C517.925 297.972 521.867 298.155 524.63 299.777C526.845 301.076 527.176 301.124 531.437 300.754C538.127 300.172 538.255 300.201 540.565 302.829C542.206 304.694 543.209 305.33 545.435 305.91C547.874 306.545 548.718 307.148 551.892 310.524C559.244 318.341 566.142 318.986 578.126 312.976L583.144 310.459L584.246 311.634C584.852 312.28 586.541 313.322 587.999 313.95C591.708 315.547 596.065 315.127 604.097 312.397C607.836 311.127 610.366 310.507 610.475 310.835C610.574 311.134 611.235 312.068 611.944 312.911C613.835 315.162 615.386 314.921 620.371 311.599C622.719 310.034 625.038 308.754 625.525 308.754C626.011 308.754 626.831 309.22 627.345 309.789C627.859 310.358 628.459 310.823 628.679 310.823C628.898 310.823 629.925 309.427 630.96 307.72C631.996 306.013 633.068 304.617 633.343 304.617C633.618 304.617 634.513 305.112 635.33 305.718C637.09 307.02 638.856 306.763 641.386 304.835C643.417 303.287 643.696 303.285 645.513 304.798C648.194 307.031 649.222 307.371 650.585 306.478C651.255 306.038 651.948 305.219 652.126 304.658C652.328 304.02 653.512 303.239 655.284 302.576C659.888 300.851 664.193 301.128 674.888 303.839C683.914 306.128 684.185 306.163 691.861 306.075C697.325 306.013 701.44 306.271 705.601 306.939C717.325 308.817 726.509 308.076 731.229 304.869C733.289 303.469 736.072 302.555 738.289 302.551C739.978 302.548 743.145 303.791 744.443 304.967C745.172 305.627 745.509 305.667 746.115 305.163C746.533 304.816 747.323 304.674 747.87 304.848C748.891 305.172 749.723 303.839 751.901 298.389C752.351 297.263 752.913 296.342 753.15 296.342C753.387 296.342 754.446 296.853 755.503 297.478L757.425 298.613L758.178 297.478C759.189 295.955 760.57 296.046 761.784 297.715C763.408 299.947 766.85 299.924 775.593 297.623C780.907 296.224 784.444 295.623 788.934 295.355L795.042 294.991L803.552 290.624C811.219 286.689 812.112 286.347 812.578 287.162C813.588 288.934 814.888 288.189 816.637 284.835C818.347 281.557 820.336 279.42 823.082 277.913C825.156 276.775 830.624 277.182 833.586 278.697C835.741 279.798 835.894 279.806 840.301 279.034C845.635 278.1 852.176 278.007 854.91 278.827C856.764 279.383 856.98 279.32 859.102 277.603C865.287 272.597 868.932 272.588 873.903 277.565C875.477 279.139 877.477 280.667 878.35 280.958C879.222 281.249 882.721 282.766 886.124 284.33C894.566 288.205 897.227 288.444 902.623 285.81C904.741 284.776 906.846 283.93 907.3 283.93C907.755 283.93 910.409 282.883 913.198 281.603C918.93 278.972 921.251 278.706 923.944 280.373C926.489 281.948 929.396 281.487 934.051 278.772C937.924 276.513 944.161 274.113 946.178 274.107C946.814 274.105 949.836 275.057 952.893 276.222C959.566 278.767 961.764 278.763 964.944 276.205C968.537 273.314 974.344 270.889 978.368 270.601C982.951 270.273 985.613 271.245 988.671 274.365C990.008 275.729 991.421 276.689 992.09 276.689C992.734 276.689 993.673 277.297 994.244 278.082L995.257 279.474L996.941 278.055C999.065 276.265 1000.44 276.456 1001.98 278.754C1002.98 280.237 1003.71 280.677 1006.08 281.216C1009.21 281.926 1011.26 283.037 1014.55 285.786C1015.71 286.756 1017.04 287.552 1017.51 287.554C1019.04 287.559 1021.21 289.394 1023.85 292.909C1026.81 296.846 1028.47 297.894 1031.74 297.894C1033.69 297.894 1034.11 298.076 1034.41 299.057C1035.02 301.053 1036.21 302.046 1037.59 301.7C1038.5 301.47 1039.21 301.738 1040.23 302.696C1043.96 306.226 1049.13 307.487 1052.59 305.715C1053.76 305.12 1054.85 304.422 1055 304.166C1055.16 303.91 1056.76 303.819 1058.56 303.963C1060.63 304.13 1063.18 303.919 1065.51 303.387C1070.5 302.25 1072.26 302.328 1075.19 303.814C1077 304.734 1077.93 304.946 1078.6 304.59C1080.68 303.477 1084.41 304.086 1090.17 306.481C1097.57 309.555 1101.01 309.926 1104.53 308.027C1108.07 306.113 1110.1 305.938 1120.32 306.665C1128.08 307.218 1129.9 307.204 1132.59 306.567L1135.75 305.82L1137.73 307.295C1141.78 310.319 1145.82 310.442 1154.08 307.792C1156.76 306.931 1160.1 306.081 1161.5 305.902L1164.04 305.578L1165.84 308.056C1168.22 311.31 1171 312.872 1174.45 312.883C1176.7 312.89 1178.14 312.378 1183.81 309.53C1187.49 307.681 1190.73 306.168 1191.01 306.168C1191.3 306.168 1192.41 305.47 1193.48 304.617C1196 302.612 1197.85 302.627 1202.25 304.687C1205.15 306.049 1206.45 306.336 1210.36 306.485C1215.77 306.69 1216.83 306.292 1220.83 302.571C1224.41 299.231 1225.73 298.412 1227.56 298.402C1228.72 298.396 1229.68 297.814 1231.31 296.122C1232.86 294.519 1234.57 293.441 1237.14 292.46C1239.13 291.695 1241.08 290.755 1241.47 290.371C1241.85 289.987 1242.46 288.11 1242.82 286.202C1243.31 283.617 1243.86 282.324 1244.99 281.138C1246.47 279.595 1246.54 279.576 1247.24 280.543C1247.65 281.092 1247.97 281.73 1247.97 281.96C1247.97 282.19 1248.31 282.378 1248.72 282.378C1249.21 282.378 1249.58 281.553 1249.81 279.922C1251.22 269.894 1251.28 269.705 1254.69 265.873C1259.27 260.712 1262.39 259.582 1265.16 262.082C1266.01 262.85 1266.22 262.757 1268.14 260.755C1270.59 258.204 1271.88 257.799 1275.78 258.346C1277.39 258.571 1280.2 258.81 1282.02 258.877C1284.63 258.974 1285.43 259.2 1285.83 259.957C1286.44 261.124 1287.74 262.209 1288.53 262.209C1288.85 262.209 1290.36 261.278 1291.88 260.14C1293.4 259.002 1295.01 258.071 1295.44 258.071C1295.87 258.071 1297.19 259.118 1298.36 260.398C1300.09 262.285 1300.83 262.725 1302.26 262.724C1304.89 262.721 1306.77 261.296 1311.69 255.576C1316.75 249.687 1318.74 248.073 1320.93 248.073C1322.19 248.073 1322.9 247.519 1324.86 245.027C1327.13 242.158 1327.37 241.998 1329.07 242.253C1330.84 242.518 1330.9 242.472 1331.65 240.083C1332.7 236.782 1333.85 236.682 1336.75 239.64L1339 241.934L1342.41 240.956C1344.29 240.418 1349.67 238.589 1354.37 236.891C1363.91 233.438 1371.18 231.418 1375.84 230.918L1378.96 230.584L1379.85 233.388C1380.93 236.815 1382.26 238.22 1383.71 237.445C1384.27 237.149 1385.66 235.326 1386.8 233.395C1389.37 229.069 1390.64 227.845 1392.16 228.244C1392.89 228.434 1393.52 228.242 1393.91 227.719C1394.86 226.41 1397.82 227.269 1400.5 229.639C1402.92 231.769 1404.66 232.193 1406.64 231.134C1409.24 229.74 1411.07 231.721 1413.06 238.085C1413.79 240.407 1414.55 241.6 1416.35 243.202C1419.94 246.404 1424.73 249.342 1432.38 253.034C1443.81 258.55 1447.75 262.062 1450.48 269.162C1454.8 280.401 1458.42 284.043 1463.32 282.083C1466.24 280.91 1467.87 281.319 1475.64 285.184C1479.26 286.986 1482.92 288.622 1483.76 288.819C1484.6 289.017 1486.58 289.961 1488.15 290.918C1491.49 292.951 1494.99 294.004 1501.08 294.809C1503.5 295.128 1508.61 296.223 1512.45 297.241C1519.34 299.072 1519.54 299.093 1530.27 299.146C1540.82 299.197 1541.21 299.237 1544.66 300.613C1546.61 301.391 1549.77 303.07 1551.68 304.344C1558.33 308.771 1559.42 309.105 1575.18 311.588C1578 312.033 1582.4 313.114 1584.95 313.99C1589.16 315.438 1589.94 315.549 1593.5 315.216C1599.21 314.682 1603.77 313.37 1611.66 309.985C1618.44 307.078 1618.72 306.895 1620.18 304.443C1622.58 300.416 1623.98 299.64 1631.54 298.144C1635.22 297.417 1644.62 295.162 1652.43 293.133C1660.24 291.103 1667.22 289.467 1667.93 289.498C1668.64 289.529 1671.66 289.712 1674.64 289.906C1679.38 290.214 1681 290.076 1687.55 288.803C1694.48 287.457 1696.27 287.326 1711.32 287.061C1740.53 286.546 1754.78 288.185 1765.4 293.279C1769.24 295.122 1770.39 295.443 1772.8 295.357C1774.54 295.295 1777.69 295.786 1780.81 296.606C1784.21 297.501 1786.62 297.857 1787.91 297.659C1791.17 297.158 1797.29 293.302 1803.4 287.892C1806.63 285.032 1810.41 282.198 1811.93 281.49C1813.43 280.792 1815.8 279.448 1817.2 278.503C1822.2 275.133 1823.79 274.861 1837.35 275.035C1844.89 275.131 1850.68 274.968 1852.64 274.604C1855.01 274.161 1860.68 274.186 1875.88 274.707C1897.82 275.46 1911.1 275.532 1916.51 274.927L1920 274.539V145.058C1920 68.7644 1919.81 15.4586 1919.53 15.289C1919.28 15.1308 1917.29 14.7237 1915.11 14.3845C1912 13.9004 1910.18 13.9071 1906.66 14.4155C1901.49 15.1628 1893.78 17.5889 1890.8 19.4099C1882.22 24.6545 1878.53 25.0616 1869.03 21.807C1863.98 20.0744 1863.12 19.9126 1862.06 20.499C1859.75 21.7842 1856.92 21.3394 1851.92 18.901C1843.4 14.7486 1841.44 14.7455 1837.06 18.8798C1832.68 23.0234 1827.6 23.7133 1818.24 21.4346C1811.42 19.7734 1809.45 19.7352 1805.59 21.19C1802.86 22.2181 1801.87 22.3221 1797.32 22.0604C1794.48 21.897 1789.85 21.2169 1787.04 20.5487L1781.93 19.3344L1780.72 16.8286C1778.36 11.9196 1777.04 11.3937 1773.95 14.1316C1769.46 18.1092 1768.41 18.3517 1765.94 15.981C1762.18 12.3835 1759.9 11.9801 1752.89 13.6723C1746.25 15.274 1746.1 15.2771 1740.97 13.9133C1735.23 12.3892 1726.73 12.3763 1717 13.8766C1707.83 15.2911 1705.15 15.7974 1701.54 16.7971C1697.93 17.7968 1695.27 17.1684 1693.62 14.9285C1692.14 12.9074 1689.91 11.7355 1688.43 12.1999C1687.81 12.397 1686 13.5725 1684.42 14.8127C1681.23 17.321 1679.45 17.6411 1677.95 15.9805C1677.41 15.3821 1676.27 14.536 1675.42 14.0995C1674.56 13.6635 1672.16 12.0649 1670.08 10.5476C1665.32 7.08196 1663.52 6.69305 1659.4 8.24354C1650.67 11.5338 1650.39 11.6005 1647.96 10.9509C1645.92 10.4043 1645.45 10.4591 1643.5 11.4712C1641.56 12.4823 1640.5 12.6064 1633.58 12.6375C1625.12 12.6747 1625.2 12.6525 1619.46 16.8074C1618.52 17.4917 1616.48 18.4179 1614.94 18.8658C1613.4 19.3142 1611.34 20.3909 1610.35 21.2588C1609.36 22.1266 1608.32 22.6913 1608.03 22.5139C1606.64 21.6534 1603.97 25.2379 1603.04 29.2212L1602.67 30.7727L1602.17 28.583C1601.7 26.5634 1601.56 26.4181 1600.32 26.717C1597.83 27.3128 1594.85 29.0505 1592.51 31.2713C1590.65 33.0286 1588.99 33.9027 1584.25 35.6062C1574.03 39.2761 1572.63 39.4664 1560.55 38.8282C1544.42 37.9759 1539.32 38.0763 1536.21 39.3061C1532.92 40.6032 1531.76 40.5985 1523.91 39.258C1520.42 38.6607 1516.98 38.3173 1516.28 38.4952C1515.28 38.7445 1514.57 39.7292 1513.18 42.795C1510.94 47.7035 1510.19 48.3505 1508.58 46.7358C1507.8 45.9544 1507.67 45.9735 1506.96 46.9944C1505.92 48.486 1503.72 48.4099 1501.55 46.8067C1500.58 46.0961 1498.54 44.9035 1497.02 44.1562C1494.58 42.961 1493.81 42.8296 1490.56 43.0618C1484.89 43.4683 1473.54 47.3513 1462.4 52.6973C1449.16 59.0487 1447.7 59.4465 1436 59.8638C1425.57 60.2357 1421.44 60.2227 1403.97 59.764C1397.58 59.5959 1391.5 59.2013 1390.47 58.8864C1388.82 58.3842 1388.22 58.4809 1385.63 59.6704C1382.49 61.1087 1380.26 61.3698 1378.63 60.4922C1378.08 60.1974 1377.63 60.1555 1377.63 60.3981C1377.63 60.6406 1376.88 61.8182 1375.96 63.0145C1373.31 66.4635 1370.49 66.8131 1361.45 64.8106C1358.72 64.2071 1357.18 63.467 1354.64 61.5477C1349.42 57.5877 1343.75 55.8743 1335.79 55.8495C1329.88 55.8314 1322.67 54.9403 1319.55 53.8418C1318 53.2988 1314.46 52.6958 1311.67 52.5023C1308.88 52.3089 1302.8 51.5709 1298.16 50.8629L1289.72 49.5746L1287.98 51.6138C1283.38 56.9956 1278.08 56.4913 1269.24 49.8275L1265.45 46.9737L1262.78 48.1389C1259.07 49.7603 1252.91 50.0421 1246.21 48.8961L1241 48.004L1238.78 50.1213C1237.56 51.2854 1235.61 52.7263 1234.44 53.3226C1230.46 55.3561 1224.72 54.5064 1220.08 51.1975C1218.63 50.1632 1218.5 50.1559 1216.87 51.0015C1214.18 52.3948 1210.24 52.0783 1203.93 49.9625C1200.87 48.9369 1197.92 48.0981 1197.36 48.0981C1196.81 48.0981 1196.1 47.6119 1195.78 47.0182C1194.82 45.2335 1191.59 41.8754 1190.06 41.0826C1188.23 40.1357 1184.64 40.1325 1181.97 41.0759C1180.09 41.7389 1179.49 41.7094 1175.87 40.7821C1172.1 39.8129 1171.73 39.8016 1169.67 40.5908C1168.46 41.0521 1167.2 41.7663 1166.85 42.178C1166.51 42.5897 1165.59 42.9263 1164.81 42.9263C1164.03 42.9263 1162.29 43.4151 1160.94 44.0124L1158.49 45.0979L1157.02 44.0124C1156.21 43.4151 1154.91 42.9258 1154.11 42.9258C1153.32 42.9253 1149.07 42.4604 1144.67 41.892C1134.71 40.6078 1135.14 40.597 1134.42 42.1583C1133.13 45.0007 1129.97 45.0866 1126.87 42.3626C1125.18 40.8726 1124.9 40.8002 1122.21 41.1369C1119.62 41.4612 1119.18 41.3655 1117.54 40.1098C1116.54 39.348 1114.39 38.1042 1112.76 37.346C1108.64 35.4257 1102.54 35.4247 1097.66 37.3434C1095.81 38.0695 1091.8 39.6304 1088.74 40.8121L1083.17 42.9605L1079.7 41.8754C1074.21 40.1615 1066.98 40.0079 1056.85 41.3914C1050.43 42.2685 1045.33 42.5871 1036.19 42.6833L1024.05 42.811L1022.24 41.455C1021.25 40.7097 1018.77 38.5541 1016.73 36.6654C1011.95 32.2358 1009.03 30.7981 1004.94 30.8596C994.146 31.0215 989.599 30.9486 986.881 30.5695C984.693 30.2649 983.347 30.331 982.228 30.7991C980.164 31.6628 977.949 30.7748 976.094 28.3399L974.751 26.5769L968.151 27.3149C962.634 27.9314 960.841 27.9427 957.24 27.3826C953.475 26.7972 952.357 26.822 948.413 27.5786C943.001 28.6177 940.297 28.6694 938.563 27.7674C937.853 27.3976 936.314 27.1882 935.144 27.3014C932.617 27.5455 930.905 26.7501 926.219 23.1542C921.988 19.9074 920.865 19.4869 917.466 19.8753C915.014 20.1556 914.394 20.0124 911.916 18.5932C908.69 16.7454 907.577 16.8788 906.077 19.2925C904.604 21.6611 900.333 25.706 898.627 26.3473C896.111 27.2926 894.545 26.9653 889.052 24.3453C886.114 22.9432 882.811 21.6441 881.712 21.4584C878.582 20.9288 874.55 22.3572 871.548 25.0595C869.616 26.7993 868.616 27.3418 867.492 27.2606C866.179 27.1654 865.713 27.5828 863.584 30.7593C860.68 35.0937 857.224 38.235 855.336 38.2562C854.591 38.265 852.863 37.7763 851.496 37.1712C848.175 35.7004 842.681 36.0329 832.93 38.295C825.48 40.0239 818.128 40.5592 813.974 39.6754C812.096 39.2761 812.058 39.3004 811.725 41.0743C811.327 43.2004 811.578 43.2087 802.225 40.7557C793.025 38.3436 788.326 38.7031 783.791 42.1666C781.767 43.7119 781.493 43.7228 777.994 42.3911C775.039 41.2667 773.835 41.3893 771.741 43.0272C770.663 43.8702 769.978 43.9674 767.211 43.6705L763.95 43.3209L762.171 45.3214C760.139 47.6052 760.134 47.6109 755.964 51.3796C752.533 54.4811 752.616 54.4604 743.567 54.4826C739.202 54.4935 738.336 54.2954 729.374 51.2394C717.32 47.1284 713.003 46.6055 709.75 48.8625C708.595 49.6641 706.714 50.4016 705.466 50.5423C703.54 50.7595 702.58 50.4455 698.306 48.2005C694.906 46.4142 693.143 45.7511 692.641 46.0692C692.241 46.3231 691.107 46.5341 690.121 46.5388C688.559 46.5455 687.806 46.0144 684.268 42.4092L680.207 38.2718H672.868C666.391 38.2718 665.289 38.1435 663.483 37.18C662.358 36.5796 660.856 35.7836 660.145 35.4113C659.435 35.0384 656.931 34.5062 654.582 34.2285C649.329 33.6068 647.782 32.5601 644.947 27.7054C642.315 23.1982 639.377 20.7007 632.999 17.5496C627.124 14.6467 621.712 13.1608 608.749 10.893L599.968 9.35702L592.422 5.46734C582.984 0.601242 578.028 -0.748585 573.7 0.367479Z" fill="black"/>
</svg>
