<svg width="22" height="20" viewBox="0 0 22 20" fill="none" xmlns="http://www.w3.org/2000/svg">
<path d="M22 3.24784C21.1819 3.6293 20.3101 3.88215 19.4012 4.00492C20.3362 3.41153 21.0499 2.47907 21.3854 1.35515C20.5136 1.90761 19.5511 2.29784 18.5254 2.51561C17.6976 1.57877 16.5179 0.998535 15.2309 0.998535C12.7339 0.998535 10.7236 3.15284 10.7236 5.79384C10.7236 6.17384 10.7539 6.53923 10.8281 6.88707C7.0785 6.69269 3.76063 4.78246 1.53175 1.87254C1.14262 2.59015 0.914375 3.41154 0.914375 4.29577C0.914375 5.95607 1.71875 7.42784 2.91775 8.27992C2.19312 8.2653 1.48225 8.04169 0.88 7.68946C0.88 7.70407 0.88 7.72307 0.88 7.74207C0.88 10.0718 2.44337 12.0068 4.4935 12.4526C4.12637 12.5593 3.72625 12.6105 3.311 12.6105C3.02225 12.6105 2.73075 12.5929 2.45712 12.5286C3.0415 14.4272 4.69975 15.8229 6.6715 15.8682C5.137 17.1442 3.18863 17.9129 1.07938 17.9129C0.7095 17.9129 0.35475 17.8954 0 17.8472C1.99787 19.2166 4.36563 19.9985 6.919 19.9985C15.2185 19.9985 19.756 12.6908 19.756 6.35653C19.756 6.14461 19.7491 5.94 19.7395 5.73684C20.6346 5.06161 21.3867 4.2183 22 3.24784Z" fill="white"/>
</svg>
