<svg width="28" height="16" viewBox="0 0 28 16" fill="none" xmlns="http://www.w3.org/2000/svg">
<path d="M23.235 9.59996C22.7823 9.07496 22.9118 8.84139 23.235 8.37211C23.2408 8.36675 26.9778 3.62461 27.3628 2.01639L27.3651 2.01532C27.5565 1.42925 27.3651 0.998535 26.4399 0.998535H23.3785C22.5991 0.998535 22.2398 1.36818 22.0473 1.78175C22.0473 1.78175 20.4885 5.20818 18.2835 7.42925C17.5718 8.07103 17.2428 8.27675 16.8542 8.27675C16.6629 8.27675 16.3654 8.07103 16.3654 7.48496V2.01532C16.3654 1.31246 16.1472 0.998535 15.502 0.998535H10.6882C10.1994 0.998535 9.90884 1.32639 9.90884 1.63175C9.90884 2.29818 11.0114 2.45139 11.1257 4.32639V8.39461C11.1257 9.28603 10.9495 9.44996 10.5587 9.44996C9.518 9.44996 6.99208 6.00961 5.49519 2.07211C5.19301 1.30818 4.89784 0.999607 4.11264 0.999607H1.05004C0.176173 0.999607 0 1.36925 0 1.78282C0 2.51353 1.0407 6.14675 4.8395 10.9467C7.37125 14.2232 10.9367 15.9985 14.1802 15.9985C16.1297 15.9985 16.3677 15.6042 16.3677 14.926C16.3677 11.7953 16.1916 11.4996 17.1681 11.4996C17.6208 11.4996 18.4001 11.7053 20.2202 13.2857C22.3004 15.1596 22.6423 15.9985 23.8067 15.9985H26.8681C27.7408 15.9985 28.183 15.6042 27.9286 14.8264C27.3464 13.1903 23.4123 9.82496 23.235 9.59996Z" fill="white"/>
</svg>
