<svg width="26" height="20" viewBox="0 0 26 20" fill="none" xmlns="http://www.w3.org/2000/svg">
<path d="M24.895 2.82944C24.1898 1.49599 23.4244 1.25072 21.866 1.15744C20.3093 1.04517 16.3946 0.998535 13.0033 0.998535C9.60538 0.998535 5.68912 1.04517 4.134 1.15572C2.57887 1.25072 1.81187 1.49426 1.10012 2.82944C0.37375 4.16117 0 6.45499 0 10.4934C0 10.4968 0 10.4985 0 10.4985C0 10.502 0 10.5037 0 10.5037V10.5072C0 14.5283 0.37375 16.8394 1.10012 18.1573C1.81187 19.4907 2.57725 19.7325 4.13237 19.8448C5.68912 19.9415 9.60538 19.9985 13.0033 19.9985C16.3946 19.9985 20.3092 19.9415 21.8676 19.8465C23.426 19.7343 24.1914 19.4924 24.8966 18.159C25.6295 16.8411 26 14.53 26 10.5089C26 10.5089 26 10.5037 26 10.5003V10.4951C26 6.45499 25.6295 4.16117 24.895 2.82944ZM9.75 15.6804V5.31672L17.875 10.4985L9.75 15.6804Z" fill="white"/>
</svg>
