<svg width="18" height="18" viewBox="0 0 18 18" fill="none" xmlns="http://www.w3.org/2000/svg">
<path d="M7.45418 10.5466C5.73621 8.82847 5.3483 7.11039 5.26079 6.42203C5.23634 6.2317 5.30183 6.04083 5.43799 5.90561L6.82825 4.51588C7.03276 4.31148 7.06906 3.99293 6.91577 3.74776L4.7022 0.310349C4.53261 0.0388712 4.1844 -0.0591077 3.89814 0.0841048L0.344586 1.75781C0.1131 1.87181 -0.0230568 2.11777 0.00322585 2.37447C0.189422 4.14346 0.960585 8.49206 5.23379 12.7659C9.507 17.0397 13.8547 17.8106 15.6245 17.9968C15.8812 18.0231 16.1271 17.8869 16.2411 17.6554L17.9147 14.1016C18.0574 13.8159 17.96 13.4686 17.6897 13.2987L14.2525 11.0856C14.0075 10.9322 13.689 10.9682 13.4845 11.1725L12.0948 12.5629C11.9596 12.6991 11.7688 12.7646 11.5784 12.7401C10.8901 12.6526 9.17215 12.2646 7.45418 10.5466Z" fill="white"/>
<path d="M14.2761 9.62079C13.9333 9.62079 13.6554 9.34289 13.6554 9.00009C13.6525 6.43029 11.5701 4.34778 9.00051 4.34487C8.65773 4.34487 8.37985 4.06698 8.37985 3.72418C8.37985 3.38137 8.65773 3.10348 9.00051 3.10348C12.2554 3.10707 14.8931 5.74497 14.8967 9.00009C14.8967 9.34289 14.6189 9.62079 14.2761 9.62079Z" fill="white"/>
<path d="M17.3793 9.62079C17.0366 9.62079 16.7587 9.34289 16.7587 9.00009C16.7574 7.83903 16.5014 6.73765 16.0436 5.74882C15.1517 3.82254 13.4939 2.32338 11.4611 1.64218C10.688 1.38311 9.86062 1.24235 9.00051 1.24139C8.65773 1.24139 8.37985 0.963497 8.37985 0.620696C8.37985 0.277895 8.65773 0 9.00051 0C9.9556 0.00105223 10.8759 0.150712 11.7395 0.427104C13.1163 0.867752 14.349 1.63052 15.349 2.62677C16.1263 3.40119 16.763 4.31669 17.2174 5.33162C17.719 6.45195 17.9986 7.69344 18 9.00009C18 9.16471 17.9346 9.32259 17.8182 9.43899C17.7018 9.55539 17.544 9.62079 17.3793 9.62079Z" fill="white"/>
</svg>
