<svg width="19" height="23" viewBox="0 0 19 23" fill="none" xmlns="http://www.w3.org/2000/svg">
<path d="M9.5 0C4.74475 0 0.875 3.89658 0.875 8.68729C0.875 15.4943 8.68925 22.5227 9.02179 22.8179C9.15883 22.9396 9.32942 23 9.5 23C9.67058 23 9.84117 22.9396 9.97821 22.8189C10.3107 22.5228 18.125 15.4943 18.125 8.68729C18.125 3.89658 14.2552 0 9.5 0ZM9.5 13.4167C6.85787 13.4167 4.70833 11.2671 4.70833 8.625C4.70833 5.98287 6.85787 3.83333 9.5 3.83333C12.1421 3.83333 14.2917 5.98287 14.2917 8.625C14.2917 11.2671 12.1421 13.4167 9.5 13.4167Z" fill="#EB2A41"/>
</svg>
