<svg width="23" height="23" viewBox="0 0 23 23" fill="none" xmlns="http://www.w3.org/2000/svg">
<path d="M9.52479 13.4762C7.3296 11.2808 6.83394 9.08549 6.72212 8.20593C6.69088 7.96273 6.77456 7.71884 6.94854 7.54606L8.72499 5.77029C8.98631 5.50911 9.03268 5.10208 8.83681 4.78881L6.00837 0.396556C5.79167 0.0496687 5.34673 -0.0755265 4.98096 0.107467L0.440304 2.24609C0.144517 2.39175 -0.0294615 2.70604 0.00412192 3.03405C0.24204 5.29442 1.22741 10.851 6.68762 16.3119C12.1478 21.7729 17.7032 22.7579 19.9646 22.9959C20.2926 23.0295 20.6069 22.8555 20.7525 22.5597L22.891 18.0187C23.0733 17.6537 22.9489 17.2099 22.6035 16.9928L18.2116 14.165C17.8985 13.9689 17.4915 14.0149 17.2301 14.276L15.4545 16.0526C15.2817 16.2266 15.0378 16.3103 14.7947 16.279C13.9152 16.1672 11.72 15.6715 9.52479 13.4762Z" fill="#EB2A41"/>
<path d="M18.2416 12.2932C17.8037 12.2932 17.4486 11.9381 17.4486 11.5001C17.4449 8.21648 14.7841 5.5555 11.5007 5.55178C11.0627 5.55178 10.7076 5.19669 10.7076 4.75867C10.7076 4.32065 11.0627 3.96556 11.5007 3.96556C15.6597 3.97015 19.0301 7.3408 19.0347 11.5001C19.0347 11.9381 18.6796 12.2932 18.2416 12.2932Z" fill="#EB2A41"/>
<path d="M22.2069 12.2932C21.7689 12.2932 21.4139 11.9381 21.4139 11.5001C21.4122 10.0165 21.0851 8.60922 20.5001 7.34572C19.3605 4.88436 17.2423 2.96876 14.6447 2.09834C13.6569 1.76731 12.5997 1.58745 11.5007 1.58622C11.0627 1.58622 10.7076 1.23114 10.7076 0.793112C10.7076 0.355088 11.0627 0 11.5007 0C12.7211 0.00134451 13.897 0.192577 15.0004 0.545744C16.7597 1.10879 18.3348 2.08344 19.6126 3.35642C20.6058 4.34596 21.4194 5.51576 22 6.81263C22.641 8.24416 22.9982 9.83051 23 11.5001C23 11.7105 22.9164 11.9122 22.7677 12.0609C22.619 12.2097 22.4173 12.2932 22.2069 12.2932Z" fill="#EB2A41"/>
</svg>
