<svg width="1920" height="91" viewBox="0 0 1920 91" fill="none" xmlns="http://www.w3.org/2000/svg">
<path fill-rule="evenodd" clip-rule="evenodd" d="M1366.35 1.26421C1366.89 1.39986 1368.56 2.4297 1370.06 3.5531C1373.25 5.94091 1376.56 7.16874 1379.75 7.14875C1381.86 7.1355 1382.28 7.39135 1385.61 10.7208C1390.02 15.1271 1391.27 15.5184 1401.35 15.6577L1408.74 15.7605L1413.24 18.0449L1417.74 20.3288L1424.33 20.1527C1429.25 20.0209 1433.35 20.3124 1440.44 21.2977C1445.66 22.0246 1452.08 22.651 1454.69 22.6901C1458.85 22.7523 1459.93 22.5637 1463.39 21.1703C1467.1 19.6754 1467.78 19.577 1474.73 19.5325C1480.8 19.4939 1482.85 19.6914 1486.24 20.6423C1492.23 22.319 1494.73 23.7792 1500.38 28.8893C1511.24 38.7125 1516.32 41.9771 1521.64 42.5749C1524.46 42.8913 1529.19 42.1729 1536.08 40.3837C1541.58 38.9537 1546.55 38.8845 1549.01 40.2039C1550.44 40.9746 1551.99 41.2006 1555.87 41.2054C1560.02 41.2101 1561.33 41.4244 1563.44 42.4388C1566 43.6666 1566 43.6666 1569.78 42.7274C1575.08 41.4107 1582.39 40.6808 1586.75 41.0341C1592.62 41.5106 1599.94 42.6901 1602.67 43.5996C1605.14 44.4215 1609.95 44.385 1611.9 43.5285C1612.54 43.2507 1613.18 43.7489 1614.33 45.4221C1615.82 47.6054 1615.98 47.6869 1618.31 47.5243C1619.65 47.4308 1624.38 47.6977 1628.83 48.117C1633.29 48.5363 1638.03 48.8734 1639.37 48.8661C1640.84 48.858 1642.96 49.3638 1644.66 50.127C1649.32 52.2164 1656.02 53.8734 1665.5 55.2851C1675.39 56.7561 1682.09 58.1746 1685.14 59.4406C1686.84 60.1483 1687.59 60.1737 1690.17 59.6136C1694.94 58.5815 1698.55 59.1885 1704.25 61.9807C1709 64.3007 1709.4 64.4049 1712.71 64.1426C1714.78 63.979 1718.96 62.9331 1723.03 61.5607C1731.93 58.5633 1736.19 58.1961 1742.39 59.8927C1746.35 60.977 1747.9 61.0915 1758.13 61.0496C1769.03 61.005 1769.54 60.9569 1771.25 59.8028C1773.58 58.2314 1776.08 58.2756 1780.02 59.9588C1781.77 60.7043 1784.57 61.7873 1786.25 62.3645L1789.31 63.4148L1793.2 61.3806L1797.08 59.346L1801.75 59.7656C1804.31 59.9969 1808.33 60.1869 1810.67 60.188C1814.48 60.1895 1815.13 60.0401 1816.73 58.801C1819.28 56.8356 1820.23 56.6494 1823.72 57.4437C1826.96 58.1835 1828.56 58.0334 1829.9 56.8626C1830.59 56.2599 1831 56.3382 1832.54 57.3762C1833.55 58.0503 1836.47 59.7198 1839.03 61.0871L1843.69 63.5725L1846.69 62.5784C1850.66 61.2659 1858.19 61.2176 1861.75 62.4819L1864.31 63.3894L1867.3 60.4929C1870.87 57.0457 1873.88 55.3771 1877.33 54.9469C1880.11 54.5985 1884.12 55.6539 1886.3 57.3095C1887.33 58.0954 1887.92 58.1843 1889.36 57.7751C1891.95 57.0426 1894.32 57.9999 1897.01 60.8649C1910.11 74.773 1910.48 74.9774 1925.29 76.5665C1927.59 76.8133 1932.26 76.6873 1937.43 76.2394C1945.51 75.5396 1949.2 75.6275 1951.8 76.5823C1954.8 77.6789 1957.95 74.2623 1962.68 64.7901C1964.59 60.9765 1966.24 57.9472 1966.35 58.0586C1966.74 58.44 1968.21 72.442 1970.24 95.162C1971.35 107.656 1973.13 126.199 1974.19 136.368C1975.25 146.537 1976.89 162.703 1977.84 172.291C1979.44 188.615 1981.52 207.006 1984.78 233.83C1987.24 254.096 1988.7 270.873 1988.04 271.289C1987.6 271.567 1987.61 273.5 1988.11 278.867L1988.77 286.071L1987.36 289.734C1983.04 300.966 1978.43 302.651 1969.5 296.257C1968.33 295.416 1967.05 294.731 1966.67 294.733C1966.28 294.735 1965.61 294.052 1965.17 293.214C1964.15 291.276 1960.54 288.428 1959.12 288.437C1958.51 288.441 1956.75 288.93 1955.19 289.525L1952.36 290.605L1948.35 288.778C1943.4 286.526 1939.62 285.701 1936.04 286.093C1932.42 286.49 1929.69 287.978 1925.51 291.814C1921.45 295.545 1919.58 296.131 1916 294.789C1914.68 294.293 1911.82 292.439 1909.64 290.669C1907.47 288.899 1904.59 286.64 1903.26 285.65C1900.95 283.943 1900.79 283.9 1900.12 284.823C1899.46 285.739 1899.39 285.712 1898.87 284.365C1898.56 283.578 1898.31 282.755 1898.31 282.536C1898.31 282.317 1897.94 280.912 1897.48 279.413C1896.26 275.377 1895.28 275.088 1890.85 277.45C1886.6 279.709 1885.42 279.832 1884.28 278.123C1883.09 276.326 1881.1 275.684 1877.13 275.821C1873.9 275.933 1873.48 275.807 1870.52 273.833C1859.69 266.589 1848.28 262.438 1837.31 261.74C1832.05 261.406 1830.91 261.141 1826.66 259.278C1819.06 255.948 1815.61 255.252 1807.1 255.327C1798.13 255.406 1794.77 256.226 1790.85 259.301C1786.55 262.666 1783.58 263.793 1778.22 264.096C1773.59 264.359 1765.95 263.475 1765.41 262.614C1764.68 261.443 1761.56 262.285 1758.11 264.588C1753.34 267.771 1751.86 267.77 1749.87 264.587C1749.01 263.206 1748.39 262.798 1747.2 262.806C1744.73 262.821 1740.29 264.645 1736.25 267.3C1730.4 271.14 1728.6 271.899 1723.95 272.494C1708.89 274.421 1709.14 274.294 1699.44 284.682C1695.51 288.886 1691.33 292.905 1690.13 293.616C1688.13 294.808 1687.5 294.9 1681.87 294.806C1676.27 294.714 1675.66 294.801 1674.18 295.905C1673.17 296.658 1671.81 297.109 1670.54 297.117C1667.8 297.134 1664.82 299.177 1659.7 304.544C1657.43 306.93 1654.53 309.5 1653.26 310.254C1651.02 311.587 1650.67 311.63 1641.04 311.763C1632.1 311.887 1630.93 311.799 1629.18 310.875L1627.25 309.85L1623.89 311.672L1620.54 313.494L1617.99 311.821C1616.58 310.901 1615 310.152 1614.47 310.155C1613.22 310.163 1611.71 311.71 1610.38 314.362C1609.56 315.998 1608.87 316.608 1607.34 317.043C1604.6 317.826 1598.1 317.777 1590.44 316.917C1585.65 316.378 1582.92 316.328 1579.96 316.723C1572.15 317.765 1562.98 317.994 1549.07 317.495C1537.27 317.072 1534.52 317.113 1532.15 317.749C1527.51 318.99 1525.22 318.269 1510.85 311.061C1503.76 307.5 1496.85 303.754 1495.5 302.735C1489.73 298.377 1481.38 297.992 1463.1 301.242C1456.91 302.344 1450.95 303.25 1449.86 303.257C1448.68 303.265 1447.34 303.702 1446.53 304.35C1443.08 307.102 1438.12 307.728 1431.14 306.291C1425.24 305.077 1421.21 305.29 1418.4 306.965C1416.14 308.307 1415.8 308.358 1411.45 308.007C1404.61 307.456 1404.48 307.486 1402.14 310.186C1400.47 312.104 1399.45 312.759 1397.18 313.367C1394.69 314.032 1393.84 314.653 1390.61 318.124C1383.15 326.16 1376.11 326.863 1363.83 320.798L1358.68 318.258L1357.57 319.465C1356.95 320.129 1355.23 321.205 1353.75 321.856C1349.97 323.513 1345.51 323.112 1337.29 320.373C1333.46 319.098 1330.87 318.481 1330.76 318.817C1330.67 319.123 1330 320.082 1329.28 320.948C1327.36 323.261 1325.77 323.024 1320.66 319.661C1318.25 318.077 1315.87 316.783 1315.38 316.786C1314.88 316.79 1314.04 317.27 1313.52 317.855C1313 318.44 1312.39 318.92 1312.17 318.921C1311.94 318.922 1310.88 317.502 1309.82 315.764C1308.75 314.026 1307.64 312.606 1307.36 312.608C1307.08 312.61 1306.17 313.122 1305.34 313.746C1303.55 315.088 1301.74 314.836 1299.15 312.882C1297.06 311.313 1296.78 311.313 1294.93 312.871C1292.2 315.17 1291.16 315.525 1289.76 314.62C1289.07 314.175 1288.36 313.343 1288.17 312.77C1287.96 312.119 1286.75 311.329 1284.93 310.662C1280.22 308.929 1275.82 309.239 1264.91 312.079C1255.71 314.475 1255.43 314.514 1247.59 314.473C1242 314.445 1237.8 314.735 1233.55 315.443C1221.59 317.439 1212.2 316.739 1207.36 313.492C1205.24 312.075 1202.4 311.158 1200.13 311.168C1198.4 311.176 1195.18 312.467 1193.86 313.676C1193.12 314.357 1192.77 314.399 1192.15 313.887C1191.72 313.535 1190.91 313.396 1190.36 313.577C1189.32 313.915 1188.46 312.558 1186.2 307.001C1185.73 305.854 1185.15 304.916 1184.91 304.917C1184.67 304.919 1183.59 305.448 1182.51 306.093L1180.55 307.266L1179.78 306.11C1178.74 304.56 1177.33 304.662 1176.1 306.376C1174.45 308.667 1170.93 308.665 1161.99 306.37C1156.55 304.974 1152.93 304.382 1148.34 304.137L1142.1 303.804L1133.38 299.395C1125.52 295.423 1124.61 295.079 1124.13 295.915C1123.11 297.732 1121.78 296.979 1119.97 293.563C1118.21 290.223 1116.16 288.052 1113.34 286.529C1111.22 285.379 1105.63 285.831 1102.62 287.397C1100.42 288.537 1100.27 288.546 1095.76 287.786C1090.3 286.865 1083.62 286.812 1080.83 287.668C1078.94 288.248 1078.72 288.185 1076.54 286.443C1070.19 281.366 1066.47 281.38 1061.42 286.498C1059.82 288.118 1057.79 289.692 1056.9 289.996C1056.01 290.299 1052.45 291.871 1048.98 293.491C1040.38 297.506 1037.66 297.768 1032.13 295.11C1029.96 294.066 1027.81 293.215 1027.34 293.218C1026.88 293.221 1024.16 292.168 1021.3 290.877C1015.43 288.225 1013.06 287.969 1010.31 289.69C1007.72 291.315 1004.75 290.863 999.979 288.118C996.007 285.833 989.62 283.421 987.559 283.428C986.909 283.43 983.828 284.422 980.712 285.632C973.911 288.276 971.665 288.286 968.4 285.692C964.71 282.76 958.762 280.319 954.65 280.05C949.965 279.744 947.252 280.755 944.148 283.963C942.79 285.366 941.353 286.356 940.669 286.361C940.012 286.365 939.057 286.991 938.478 287.797L937.452 289.227L935.723 287.787C933.541 285.972 932.136 286.176 930.574 288.534C929.566 290.056 928.821 290.511 926.403 291.077C923.216 291.823 921.121 292.971 917.781 295.802C916.602 296.801 915.245 297.622 914.764 297.627C913.208 297.643 911 299.532 908.323 303.141C905.324 307.184 903.637 308.266 900.298 308.286C898.304 308.299 897.876 308.488 897.578 309.493C896.97 311.536 895.756 312.559 894.347 312.214C893.41 311.985 892.686 312.264 891.657 313.249C887.864 316.881 882.596 318.203 879.042 316.414C877.845 315.813 876.733 315.107 876.57 314.847C876.407 314.585 874.772 314.503 872.936 314.662C870.822 314.845 868.218 314.646 865.83 314.117C860.723 312.987 858.933 313.078 855.947 314.615C854.099 315.567 853.148 315.79 852.467 315.43C850.338 314.306 846.53 314.953 840.658 317.437C833.117 320.627 829.606 321.027 826 319.11C822.364 317.176 820.29 317.01 809.857 317.819C801.933 318.434 800.076 318.43 797.32 317.797L794.083 317.053L792.074 318.574C787.955 321.69 783.831 321.842 775.375 319.187C772.626 318.324 769.209 317.476 767.782 317.302L765.187 316.987L763.355 319.532C760.951 322.873 758.116 324.487 754.596 324.521C752.29 324.542 750.825 324.028 745.013 321.153C741.24 319.287 737.916 317.762 737.627 317.763C737.339 317.765 736.201 317.059 735.1 316.193C732.513 314.161 730.621 314.187 726.143 316.321C723.18 317.732 721.86 318.033 717.865 318.211C712.344 318.455 711.253 318.055 707.148 314.278C703.462 310.887 702.106 310.058 700.244 310.06C699.055 310.061 698.072 309.472 696.394 307.753C694.804 306.124 693.046 305.034 690.42 304.047C688.374 303.279 686.376 302.331 685.981 301.94C685.587 301.55 684.953 299.636 684.574 297.688C684.059 295.049 683.484 293.731 682.319 292.526C680.805 290.959 680.731 290.94 680.016 291.932C679.609 292.496 679.278 293.15 679.28 293.386C679.281 293.621 678.941 293.815 678.523 293.818C678.019 293.821 677.64 292.98 677.395 291.314C675.887 281.074 675.819 280.881 672.319 276.986C667.606 271.741 664.407 270.606 661.593 273.179C660.727 273.97 660.513 273.876 658.537 271.842C656.019 269.25 654.703 268.844 650.716 269.428C649.074 269.669 646.211 269.931 644.353 270.012C641.68 270.127 640.869 270.363 640.468 271.14C639.852 272.336 638.528 273.453 637.721 273.458C637.393 273.46 635.846 272.518 634.283 271.365C632.719 270.212 631.078 269.271 630.634 269.274C630.19 269.276 628.852 270.355 627.662 271.671C625.906 273.61 625.156 274.065 623.697 274.072C621.008 274.087 619.078 272.642 614.016 266.828C608.804 260.841 606.762 259.204 604.524 259.218C603.243 259.226 602.509 258.664 600.488 256.13C598.16 253.212 597.911 253.05 596.172 253.321C594.366 253.604 594.31 253.557 593.519 251.121C592.428 247.753 591.254 247.659 588.311 250.7L586.029 253.059L582.535 252.082C580.613 251.544 575.105 249.709 570.296 248.003C560.518 244.535 553.084 242.517 548.317 242.036L545.125 241.714L544.241 244.587C543.161 248.096 541.802 249.541 540.318 248.758C539.751 248.458 538.319 246.604 537.136 244.637C534.486 240.233 533.177 238.99 531.625 239.408C530.886 239.606 530.235 239.414 529.841 238.882C528.856 237.55 525.843 238.447 523.112 240.887C520.656 243.079 518.883 243.523 516.858 242.454C514.191 241.046 512.333 243.082 510.339 249.599C509.611 251.977 508.835 253.202 507.01 254.85C503.362 258.146 498.488 261.179 490.695 265.002C479.056 270.712 475.05 274.328 472.306 281.601C467.962 293.116 464.289 296.862 459.277 294.889C456.279 293.71 454.619 294.138 446.706 298.138C443.016 300.003 439.293 301.699 438.432 301.905C437.571 302.113 435.559 303.091 433.96 304.079C430.564 306.177 426.992 307.277 420.775 308.138C418.31 308.48 413.093 309.631 409.181 310.697C402.15 312.612 401.941 312.635 390.986 312.757C380.207 312.877 379.806 312.921 376.293 314.349C374.306 315.157 371.088 316.893 369.141 318.207C362.374 322.775 361.269 323.123 345.183 325.762C342.299 326.235 337.814 327.368 335.215 328.279C330.923 329.786 330.127 329.905 326.487 329.587C320.647 329.077 315.985 327.766 307.899 324.357C300.953 321.429 300.666 321.244 299.156 318.747C296.679 314.647 295.243 313.863 287.509 312.382C283.751 311.663 274.135 309.418 266.14 307.394C258.145 305.369 251.01 303.742 250.285 303.778C249.56 303.814 246.473 304.021 243.427 304.239C238.583 304.583 236.927 304.453 230.227 303.194C223.14 301.862 221.318 301.74 205.94 301.565C176.088 301.226 161.537 302.992 150.724 308.266C146.811 310.175 145.645 310.51 143.173 310.438C141.397 310.385 138.187 310.907 135.001 311.766C131.531 312.702 129.077 313.081 127.757 312.887C124.421 312.396 118.147 308.494 111.867 303.004C108.546 300.102 104.672 297.229 103.116 296.516C101.58 295.812 99.1457 294.453 97.7068 293.496C92.5753 290.084 90.9577 289.816 77.0975 290.081C69.3991 290.227 63.4775 290.098 61.4803 289.738C59.051 289.301 53.2415 289.361 37.7332 289.984C16.2708 290.847 12.256 290.896 -11.6778 290.589L-26.3086 290.402L-30.1495 288.66C-32.2617 287.702 -36.7475 284.913 -40.1178 282.463C-43.4886 280.012 -46.7645 277.654 -47.3972 277.222C-48.5071 276.464 -48.5283 276.281 -47.9971 272.037C-47.5824 268.726 -47.6039 267.156 -48.0826 265.694C-48.6282 264.028 -48.3956 261.412 -46.4502 247.35C-43.9016 228.924 -43.4509 225.321 -37.1237 172.758C-34.6366 152.1 -31.36 123.416 -29.8422 109.016C-28.3243 94.6147 -26.6412 79.7371 -26.1017 75.9542C-25.5618 72.1713 -24.6718 63.7212 -24.1238 57.1763C-22.8726 42.2391 -21.4844 29.6501 -21.2218 30.86C-21.1116 31.3678 -20.9518 31.7834 -20.8663 31.7828C-20.7807 31.7823 -19.1582 30.7244 -17.2601 29.4323C-10.5236 24.8462 -3.18846 23.0769 4.61801 24.155C9.91114 24.8857 17.7966 27.316 20.8527 29.158C29.6561 34.4635 33.4309 34.8558 43.1087 31.4687C48.2608 29.6656 49.1422 29.4946 50.2246 30.0872C52.5971 31.386 55.4778 30.9133 60.5742 28.389C69.2536 24.0904 71.2594 24.0747 75.7516 28.2722C80.2549 32.4792 85.4515 33.1518 94.9993 30.7629C101.961 29.0214 103.972 28.9697 107.927 30.4319C110.721 31.4653 111.732 31.5652 116.376 31.2686C119.278 31.0834 123.998 30.3587 126.866 29.6578L132.081 28.3839L133.299 25.8152C135.685 20.7827 137.031 20.2367 140.204 23.0153C144.812 27.0519 145.888 27.2931 148.402 24.8542C152.215 21.1533 154.54 20.7264 161.715 22.4111C168.509 24.0056 168.658 24.0078 173.894 22.5811C179.746 20.9866 188.435 20.919 198.386 22.3901C207.765 23.7771 210.507 24.2774 214.199 25.2761C217.89 26.2747 220.604 25.6155 222.271 23.3156C223.776 21.2404 226.047 20.0284 227.558 20.4936C228.198 20.691 230.049 21.8809 231.671 23.1383C234.952 25.6815 236.768 25.9973 238.292 24.2904C238.84 23.6754 239.999 22.8033 240.868 22.3517C241.737 21.9007 244.181 20.2515 246.301 18.6872C251.141 15.1147 252.978 14.7057 257.191 16.2641C266.132 19.571 266.42 19.6374 268.895 18.958C270.977 18.3862 271.458 18.4392 273.456 19.4612C275.451 20.4821 276.534 20.6022 283.606 20.5896C292.24 20.5736 292.162 20.5513 298.053 24.7612C299.022 25.4545 301.105 26.3882 302.681 26.8361C304.257 27.2845 306.377 28.3718 307.391 29.2524C308.405 30.1331 309.474 30.7036 309.765 30.5205C311.18 29.632 313.932 33.2785 314.913 37.3437L315.295 38.9271L315.795 36.6859C316.257 34.6188 316.403 34.4693 317.676 34.7669C320.216 35.3599 323.27 37.1169 325.679 39.3716C327.587 41.1559 329.294 42.0385 334.151 43.7493C344.613 47.4348 346.043 47.6203 358.378 46.8907C374.858 45.9163 380.061 45.9863 383.253 47.2233C386.619 48.528 387.809 48.5157 395.811 47.0955C399.377 46.4626 402.886 46.0896 403.611 46.2669C404.626 46.5153 405.357 47.5172 406.802 50.6417C409.116 55.6442 409.892 56.3006 411.53 54.6401C412.322 53.8364 412.446 53.8552 413.182 54.894C414.257 56.4118 416.497 56.3201 418.713 54.6675C419.695 53.935 421.767 52.7031 423.318 51.9295C425.801 50.6924 426.592 50.5531 429.908 50.7697C435.709 51.1489 447.329 55.0448 458.745 60.4375C472.308 66.8443 473.807 67.2414 485.764 67.5931C496.42 67.9064 500.634 67.8668 518.483 67.286C525.012 67.0733 531.217 66.6311 532.272 66.3026C533.953 65.7788 534.563 65.8738 537.222 67.073C540.437 68.5229 542.713 68.7755 544.381 67.868C544.941 67.5632 545.399 67.5175 545.401 67.7655C545.402 68.0134 546.178 69.2121 547.123 70.4289C549.851 73.9371 552.738 74.2763 561.961 72.1718C564.742 71.5374 566.313 70.7712 568.889 68.7934C574.201 64.7126 579.984 62.925 588.118 62.8487C594.156 62.7924 601.514 61.8355 604.696 60.6928C606.27 60.1279 609.887 59.4889 612.734 59.2733C615.581 59.0578 621.788 58.2646 626.527 57.5112L635.143 56.1405L636.937 58.2135C641.672 63.6845 647.075 63.1353 656.069 56.2679L659.921 53.3269L662.654 54.5007C666.458 56.1341 672.755 56.3827 679.588 55.1685L684.906 54.2233L687.186 56.3731C688.44 57.5552 690.445 59.0153 691.642 59.6173C695.722 61.6702 701.584 60.765 706.304 57.3534C707.78 56.2869 707.906 56.2787 709.578 57.1325C712.333 58.5393 716.355 58.1906 722.791 55.9878C725.909 54.92 728.922 54.0437 729.489 54.0402C730.054 54.0366 730.78 53.5352 731.1 52.9263C732.064 51.0961 735.35 47.6433 736.909 46.8231C738.772 45.8436 742.435 45.8175 745.17 46.7645C747.091 47.4301 747.707 47.3962 751.396 46.4253C755.249 45.4105 755.623 45.3965 757.736 46.1899C758.971 46.6537 760.269 47.3756 760.621 47.7942C760.971 48.2127 761.913 48.551 762.71 48.546C763.509 48.541 765.292 49.0293 766.674 49.6312L769.186 50.725L770.678 49.6061C771.498 48.9904 772.832 48.482 773.642 48.4769C774.452 48.4713 778.793 47.9689 783.288 47.3598C793.446 45.9836 793.016 45.9752 793.752 47.5665C795.091 50.4633 798.323 50.5308 801.471 47.7269C803.193 46.1932 803.473 46.1174 806.224 46.4443C808.876 46.7592 809.319 46.6586 810.992 45.3647C812.006 44.5797 814.194 43.2947 815.854 42.5093C820.056 40.5203 826.284 40.4802 831.282 42.41C833.173 43.1403 837.285 44.7099 840.42 45.8981L846.119 48.0582L849.662 46.927C855.26 45.1401 862.646 44.9369 872.998 46.286C879.563 47.1414 884.774 47.4344 894.116 47.4742L906.518 47.527L908.357 46.1295C909.368 45.3614 911.889 43.1424 913.958 41.199C918.812 36.641 921.786 35.1529 925.968 35.1896C936.996 35.2859 941.641 35.1823 944.415 34.7775C946.648 34.4521 948.024 34.5112 949.17 34.9824C951.285 35.8519 953.541 34.9301 955.421 32.4297L956.782 30.6191L963.53 31.3312C969.17 31.9259 971.002 31.9261 974.678 31.3306C978.52 30.7081 979.662 30.7263 983.696 31.4744C989.233 32.5017 991.995 32.5372 993.761 31.6043C994.484 31.2218 996.055 30.9979 997.251 31.1061C999.835 31.3395 1001.58 30.5155 1006.34 26.8103C1010.64 23.4648 1011.79 23.0278 1015.26 23.403C1017.77 23.6738 1018.4 23.5234 1020.93 22.0571C1024.21 20.1479 1025.35 20.2771 1026.9 22.7344C1028.42 25.1459 1032.81 29.2526 1034.55 29.8971C1037.13 30.8473 1038.73 30.5027 1044.32 27.7897C1047.31 26.3379 1050.68 24.9889 1051.8 24.7922C1055 24.2308 1059.13 25.665 1062.21 28.4076C1064.19 30.1734 1065.22 30.7215 1066.37 30.6313C1067.71 30.5257 1068.19 30.9492 1070.38 34.1822C1073.38 38.5937 1076.93 41.7822 1078.86 41.7917C1079.62 41.796 1081.38 41.2854 1082.77 40.6582C1086.16 39.1336 1091.77 39.4383 1101.75 41.688C1109.37 43.4073 1116.89 43.9073 1121.12 42.9774C1123.04 42.5573 1123.08 42.5819 1123.43 44.3928C1123.85 46.5633 1123.59 46.5734 1133.13 44.0064C1142.52 41.4822 1147.32 41.8195 1151.98 45.3304C1154.05 46.8968 1154.33 46.9062 1157.9 45.5227C1160.91 44.3546 1162.14 44.4722 1164.29 46.1328C1165.4 46.9875 1166.1 47.0825 1168.92 46.7614L1172.25 46.3832L1174.08 48.4164C1176.17 50.7376 1176.18 50.7434 1180.46 54.5685C1183.99 57.7164 1183.9 57.6958 1193.15 57.6606C1197.61 57.6438 1198.49 57.4358 1207.63 54.255C1219.92 49.9761 1224.33 49.4141 1227.66 51.7C1228.85 52.5119 1230.77 53.2536 1232.05 53.3894C1234.02 53.5991 1235 53.2721 1239.35 50.9502C1242.81 49.1027 1244.61 48.4137 1245.12 48.7356C1245.53 48.9926 1246.7 49.201 1247.7 49.1994C1249.3 49.1963 1250.06 48.6486 1253.66 44.9412L1257.78 40.6865L1265.28 40.6395C1271.89 40.5981 1273.02 40.4599 1274.86 39.4636C1276 38.8427 1277.53 38.0196 1278.26 37.6345C1278.98 37.2488 1281.53 36.6889 1283.93 36.39C1289.29 35.721 1290.87 34.6413 1293.73 29.6613C1296.39 25.0378 1299.38 22.4665 1305.87 19.205C1311.86 16.2004 1317.38 14.6472 1330.61 12.2463L1339.57 10.6202L1347.25 6.59644C1356.86 1.56256 1361.92 0.151233 1366.35 1.26421Z" fill="#212121"/>
</svg>
