<svg width="1920" height="223" viewBox="0 0 1920 223" fill="none" xmlns="http://www.w3.org/2000/svg">
<path fill-rule="evenodd" clip-rule="evenodd" d="M503.305 -145.224C502.702 -145.073 500.833 -143.919 499.152 -142.661C495.58 -139.987 491.873 -138.612 488.299 -138.634C485.932 -138.649 485.461 -138.363 481.73 -134.634C476.793 -129.699 475.398 -129.261 464.109 -129.105L455.834 -128.99L450.794 -126.432L445.754 -123.874L438.367 -124.071C432.861 -124.219 428.271 -123.892 420.333 -122.789C414.477 -121.975 407.291 -121.273 404.365 -121.229C399.705 -121.16 398.497 -121.371 394.624 -122.931C390.468 -124.606 389.705 -124.716 381.928 -124.766C375.129 -124.809 372.83 -124.588 369.03 -123.523C362.329 -121.645 359.525 -120.01 353.197 -114.287C341.034 -103.286 335.354 -99.6296 329.39 -98.9601C326.237 -98.6057 320.935 -99.4103 313.222 -101.414C307.056 -103.015 301.493 -103.093 298.743 -101.615C297.136 -100.752 295.4 -100.499 291.053 -100.494C286.414 -100.489 284.94 -100.249 282.577 -99.1125C279.716 -97.7375 279.716 -97.7375 275.483 -98.7894C269.546 -100.264 261.357 -101.081 256.478 -100.686C249.904 -100.152 241.706 -98.8311 238.647 -97.8125C235.883 -96.8921 230.497 -96.933 228.304 -97.8921C227.591 -98.2032 226.878 -97.6453 225.591 -95.7714C223.913 -93.3264 223.74 -93.2351 221.128 -93.4172C219.633 -93.5219 214.33 -93.223 209.343 -92.7534C204.356 -92.2839 199.044 -91.9063 197.539 -91.9145C195.901 -91.9236 193.526 -91.3572 191.62 -90.5024C186.4 -88.1624 178.903 -86.3067 168.279 -84.7258C157.208 -83.0784 149.7 -81.4898 146.287 -80.072C144.378 -79.2794 143.545 -79.2509 140.647 -79.8782C135.314 -81.0341 131.27 -80.3544 124.88 -77.2272C119.569 -74.6291 119.114 -74.5124 115.408 -74.8061C113.092 -74.9894 108.409 -76.1607 103.848 -77.6976C93.8864 -81.0545 89.1099 -81.4657 82.1735 -79.5656C77.7402 -78.3514 76.0012 -78.2232 64.5478 -78.2701C52.3339 -78.32 51.7633 -78.3739 49.8458 -79.6663C47.235 -81.4261 44.4432 -81.3767 40.0276 -79.4917C38.072 -78.6568 34.9319 -77.4439 33.0502 -76.7974L29.6284 -75.6213L25.2732 -77.8993L20.9186 -80.1779L15.6962 -79.7081C12.8245 -79.449 8.32543 -79.2362 5.69887 -79.2349C1.43694 -79.2332 0.706282 -79.4006 -1.08827 -80.7882C-3.93507 -82.9893 -5.00589 -83.1979 -8.90755 -82.3083C-12.5429 -81.4798 -14.3309 -81.6479 -15.8345 -82.9591C-16.6075 -83.6341 -17.0596 -83.5463 -18.7933 -82.3839C-19.9186 -81.629 -23.1887 -79.7593 -26.0601 -78.228L-31.281 -75.4446L-34.6405 -76.5579C-39.077 -78.0278 -47.5137 -78.0819 -51.5038 -76.666L-54.3689 -75.6497L-57.7222 -78.8935C-61.7123 -82.754 -65.089 -84.6228 -68.946 -85.1046C-72.066 -85.4947 -76.5546 -84.3128 -78.9936 -82.4586C-80.1516 -81.5784 -80.8071 -81.4789 -82.4255 -81.9372C-85.3205 -82.7575 -87.9751 -81.6855 -90.9958 -78.4769C-105.658 -62.9011 -106.07 -62.6722 -122.664 -60.8924C-125.236 -60.6161 -130.464 -60.7572 -136.255 -61.2588C-145.31 -62.0425 -149.438 -61.944 -152.355 -60.8748C-155.707 -59.6467 -159.238 -63.473 -164.54 -74.081C-166.674 -78.3519 -168.524 -81.7444 -168.65 -81.6197C-169.082 -81.1926 -170.723 -65.5115 -172.998 -40.0672C-174.249 -26.0744 -176.243 -5.30795 -177.429 6.08047C-178.615 17.4689 -180.452 35.5723 -181.509 46.3104C-183.31 64.5922 -185.634 85.1879 -189.285 115.229C-192.044 137.926 -193.68 156.713 -192.938 157.179C-192.441 157.491 -192.46 159.656 -193.013 165.666L-193.755 173.734L-192.177 177.837C-187.341 190.415 -182.172 192.303 -172.172 185.141C-170.857 184.2 -169.429 183.432 -168.999 183.435C-168.568 183.438 -167.813 182.672 -167.322 181.733C-166.184 179.564 -162.142 176.374 -160.543 176.384C-159.871 176.388 -157.895 176.936 -156.152 177.602L-152.983 178.812L-148.488 176.766C-142.948 174.244 -138.71 173.32 -134.701 173.759C-130.649 174.204 -127.584 175.869 -122.91 180.166C-118.364 184.344 -116.265 185.001 -112.259 183.497C-110.78 182.943 -107.576 180.866 -105.139 178.884C-102.703 176.901 -99.4834 174.371 -97.9853 173.263C-95.4035 171.351 -95.22 171.303 -94.4758 172.336C-93.7364 173.362 -93.6534 173.332 -93.0707 171.824C-92.7295 170.943 -92.4494 170.021 -92.4479 169.775C-92.4464 169.53 -92.0287 167.957 -91.5194 166.278C-90.1488 161.758 -89.0539 161.434 -84.0881 164.079C-79.3373 166.61 -78.0083 166.747 -76.7392 164.833C-75.4045 162.82 -73.1712 162.101 -68.7305 162.255C-65.1053 162.381 -64.6363 162.24 -61.3287 160.029C-49.1906 151.916 -36.4224 147.267 -24.1341 146.486C-18.245 146.112 -16.9589 145.815 -12.1998 143.729C-3.69158 140 0.165071 139.22 9.69613 139.304C19.7455 139.392 23.5046 140.311 27.904 143.754C32.718 147.523 36.0417 148.785 42.0451 149.125C47.2313 149.418 55.7874 148.428 56.3904 147.465C57.2107 146.153 60.6978 147.096 64.5647 149.675C69.9101 153.24 71.5632 153.239 73.7943 149.674C74.7614 148.128 75.4481 147.671 76.7891 147.68C79.5485 147.697 84.5264 149.74 89.051 152.712C95.5982 157.013 97.6106 157.863 102.818 158.529C119.687 160.687 119.402 160.545 130.269 172.179C134.667 176.886 139.357 181.388 140.693 182.184C142.936 183.519 143.644 183.621 149.942 183.517C156.219 183.413 156.907 183.511 158.563 184.747C159.694 185.59 161.21 186.096 162.636 186.105C165.704 186.124 169.043 188.412 174.775 194.423C177.323 197.094 180.568 199.972 181.988 200.818C184.493 202.31 184.889 202.358 195.676 202.508C205.682 202.646 206.999 202.547 208.952 201.513L211.119 200.365L214.875 202.405L218.631 204.445L221.493 202.572C223.067 201.542 224.841 200.702 225.435 200.706C226.835 200.715 228.516 202.448 230.005 205.417C230.924 207.25 231.699 207.933 233.41 208.42C236.485 209.297 243.759 209.242 252.337 208.279C257.705 207.676 260.762 207.62 264.082 208.062C272.827 209.229 283.097 209.485 298.675 208.926C311.883 208.452 314.962 208.498 317.625 209.211C322.818 210.601 325.386 209.794 341.472 201.72C349.414 197.733 357.151 193.538 358.663 192.396C365.13 187.516 374.476 187.085 394.948 190.724C401.887 191.958 408.561 192.974 409.777 192.981C411.103 192.99 412.596 193.479 413.504 194.205C417.366 197.287 422.922 197.988 430.745 196.379C437.356 195.02 441.864 195.258 445.014 197.134C447.539 198.637 447.917 198.694 452.795 198.301C460.454 197.683 460.601 197.717 463.224 200.741C465.088 202.889 466.231 203.623 468.775 204.303C471.56 205.048 472.521 205.744 476.129 209.631C484.484 218.63 492.372 219.418 506.127 212.625L511.887 209.781L513.139 211.133C513.828 211.877 515.752 213.082 517.416 213.811C521.649 215.666 526.637 215.217 535.847 212.149C540.134 210.721 543.032 210.03 543.155 210.406C543.266 210.749 544.016 211.823 544.821 212.793C546.969 215.384 548.744 215.118 554.472 211.352C557.17 209.578 559.832 208.129 560.389 208.133C560.946 208.136 561.88 208.675 562.464 209.33C563.048 209.985 563.732 210.522 563.983 210.523C564.234 210.525 565.419 208.934 566.616 206.988C567.813 205.042 569.049 203.451 569.364 203.453C569.679 203.455 570.699 204.029 571.63 204.728C573.634 206.231 575.656 205.949 578.565 203.761C580.9 202.003 581.219 202.003 583.287 203.748C586.338 206.323 587.512 206.72 589.078 205.707C589.847 205.208 590.646 204.276 590.854 203.635C591.09 202.906 592.451 202.021 594.482 201.274C599.763 199.333 604.687 199.681 616.903 202.861C627.214 205.545 627.525 205.588 636.307 205.542C642.559 205.51 647.266 205.835 652.022 206.629C665.422 208.863 675.936 208.08 681.359 204.444C683.726 202.856 686.917 201.83 689.454 201.841C691.387 201.849 695.001 203.295 696.477 204.65C697.307 205.412 697.692 205.459 698.39 204.886C698.87 204.492 699.774 204.335 700.399 204.538C701.565 204.917 702.527 203.397 705.058 197.174C705.581 195.889 706.231 194.839 706.501 194.841C706.772 194.842 707.98 195.435 709.186 196.157L711.377 197.471L712.247 196.177C713.413 194.44 714.993 194.555 716.371 196.474C718.212 199.04 722.15 199.038 732.171 196.467C738.261 194.904 742.312 194.241 747.45 193.967L754.442 193.594L764.21 188.656C773.011 184.208 774.035 183.822 774.562 184.759C775.705 186.794 777.198 185.951 779.223 182.124C781.203 178.384 783.494 175.953 786.647 174.248C789.028 172.96 795.281 173.465 798.659 175.22C801.117 176.496 801.292 176.506 806.34 175.655C812.45 174.623 819.935 174.564 823.056 175.522C825.174 176.172 825.421 176.101 827.862 174.151C834.974 168.465 839.145 168.481 844.797 174.213C846.586 176.027 848.864 177.789 849.86 178.129C850.855 178.469 854.848 180.23 858.731 182.044C868.361 186.541 871.405 186.833 877.597 183.857C880.028 182.689 882.443 181.735 882.963 181.738C883.483 181.742 886.527 180.562 889.727 179.117C896.304 176.147 898.962 175.86 902.031 177.787C904.932 179.608 908.261 179.101 913.606 176.026C918.054 173.468 925.207 170.767 927.515 170.774C928.243 170.776 931.694 171.888 935.183 173.243C942.8 176.203 945.315 176.215 948.971 173.309C953.104 170.026 959.765 167.293 964.371 166.992C969.617 166.649 972.655 167.781 976.132 171.373C977.652 172.944 979.262 174.054 980.028 174.059C980.763 174.063 981.834 174.765 982.482 175.668L983.631 177.269L985.568 175.656C988.011 173.623 989.584 173.852 991.333 176.493C992.462 178.198 993.297 178.707 996.004 179.341C999.573 180.176 1001.92 181.462 1005.66 184.632C1006.98 185.751 1008.5 186.671 1009.04 186.676C1010.78 186.694 1013.25 188.81 1016.25 192.851C1019.61 197.379 1021.5 198.59 1025.24 198.614C1027.47 198.628 1027.95 198.84 1028.29 199.965C1028.97 202.253 1030.33 203.398 1031.9 203.012C1032.95 202.756 1033.77 203.068 1034.92 204.172C1039.16 208.239 1045.06 209.719 1049.05 207.716C1050.39 207.043 1051.63 206.252 1051.81 205.96C1052 205.668 1053.83 205.575 1055.88 205.753C1058.25 205.959 1061.17 205.735 1063.84 205.144C1069.56 203.878 1071.56 203.98 1074.91 205.701C1076.98 206.768 1078.04 207.017 1078.81 206.614C1081.19 205.355 1085.46 206.079 1092.03 208.862C1100.48 212.434 1104.41 212.882 1108.45 210.735C1112.52 208.569 1114.84 208.383 1126.53 209.289C1135.4 209.978 1137.48 209.974 1140.57 209.265L1144.19 208.432L1146.44 210.134C1151.05 213.625 1155.67 213.794 1165.14 210.821C1168.22 209.855 1172.05 208.905 1173.65 208.711L1176.55 208.358L1178.6 211.207C1181.3 214.949 1184.47 216.757 1188.41 216.794C1191 216.818 1192.64 216.242 1199.15 213.023C1203.37 210.933 1207.09 209.225 1207.42 209.227C1207.74 209.229 1209.01 208.438 1210.25 207.469C1213.14 205.192 1215.26 205.222 1220.28 207.612C1223.6 209.192 1225.08 209.529 1229.55 209.728C1235.73 210.002 1236.95 209.554 1241.55 205.324C1245.68 201.526 1247.2 200.598 1249.28 200.599C1250.61 200.601 1251.72 199.942 1253.59 198.016C1255.38 196.192 1257.34 194.971 1260.29 193.866C1262.58 193.006 1264.81 191.944 1265.26 191.506C1265.7 191.069 1266.41 188.926 1266.83 186.744C1267.41 183.789 1268.05 182.313 1269.36 180.963C1271.05 179.209 1271.14 179.187 1271.94 180.299C1272.39 180.93 1272.76 181.662 1272.76 181.926C1272.76 182.189 1273.14 182.407 1273.61 182.41C1274.17 182.414 1274.6 181.472 1274.87 179.606C1276.56 168.138 1276.64 167.922 1280.56 163.56C1285.83 157.686 1289.42 156.415 1292.57 159.296C1293.54 160.182 1293.78 160.077 1295.99 157.799C1298.81 154.896 1300.28 154.442 1304.75 155.096C1306.59 155.366 1309.8 155.659 1311.88 155.749C1314.87 155.879 1315.78 156.142 1316.23 157.013C1316.92 158.352 1318.4 159.603 1319.3 159.609C1319.67 159.611 1321.4 158.556 1323.15 157.265C1324.9 155.973 1326.74 154.919 1327.24 154.923C1327.74 154.926 1329.24 156.134 1330.57 157.607C1332.54 159.779 1333.38 160.288 1335.01 160.297C1338.02 160.313 1340.18 158.695 1345.85 152.183C1351.69 145.478 1353.97 143.645 1356.48 143.661C1357.92 143.67 1358.74 143.041 1361 140.203C1363.61 136.935 1363.89 136.754 1365.83 137.058C1367.86 137.374 1367.92 137.322 1368.8 134.593C1370.03 130.822 1371.34 130.716 1374.64 134.122L1377.19 136.764L1381.11 135.669C1383.26 135.067 1389.43 133.012 1394.81 131.101C1405.76 127.218 1414.09 124.958 1419.43 124.419L1423 124.059L1423.99 127.275C1425.2 131.205 1426.72 132.823 1428.39 131.946C1429.02 131.611 1430.62 129.535 1431.95 127.332C1434.92 122.4 1436.38 121.008 1438.12 121.475C1438.95 121.698 1439.68 121.483 1440.12 120.886C1441.22 119.395 1444.6 120.4 1447.66 123.132C1450.41 125.587 1452.39 126.085 1454.66 124.887C1457.65 123.31 1459.73 125.591 1461.96 132.889C1462.77 135.552 1463.64 136.923 1465.69 138.77C1469.77 142.461 1475.23 145.858 1483.96 150.139C1496.99 156.534 1501.48 160.583 1504.55 168.729C1509.42 181.624 1513.53 185.819 1519.14 183.61C1522.5 182.289 1524.36 182.769 1533.22 187.248C1537.36 189.337 1541.53 191.236 1542.49 191.468C1543.45 191.7 1545.71 192.795 1547.5 193.901C1551.3 196.252 1555.3 197.483 1562.26 198.448C1565.02 198.83 1570.87 200.12 1575.25 201.313C1583.12 203.458 1583.36 203.484 1595.62 203.621C1607.7 203.755 1608.15 203.804 1612.08 205.403C1614.3 206.308 1617.91 208.252 1620.09 209.724C1627.67 214.839 1628.91 215.229 1646.92 218.184C1650.15 218.714 1655.17 219.983 1658.08 221.004C1662.89 222.691 1663.78 222.825 1667.86 222.469C1674.4 221.898 1679.62 220.429 1688.67 216.611C1696.45 213.332 1696.78 213.125 1698.47 210.329C1701.24 205.737 1702.85 204.859 1711.51 203.201C1715.72 202.395 1726.49 199.881 1735.44 197.614C1744.39 195.346 1752.39 193.525 1753.2 193.565C1754.01 193.605 1757.47 193.837 1760.88 194.08C1766.3 194.467 1768.16 194.32 1775.66 192.91C1783.6 191.419 1785.64 191.282 1802.86 191.087C1836.29 190.707 1852.59 192.684 1864.7 198.591C1869.08 200.728 1870.38 201.104 1873.15 201.023C1875.14 200.964 1878.74 201.549 1882.31 202.51C1886.19 203.558 1888.94 203.983 1890.42 203.766C1894.15 203.216 1901.18 198.846 1908.21 192.698C1911.93 189.447 1916.27 186.23 1918.01 185.431C1919.73 184.643 1922.46 183.121 1924.07 182.05C1929.82 178.229 1931.63 177.929 1947.15 178.225C1955.77 178.389 1962.41 178.244 1964.64 177.841C1967.36 177.351 1973.87 177.419 1991.24 178.117C2015.27 179.082 2019.77 179.138 2046.57 178.794L2062.96 178.585L2067.26 176.634C2069.63 175.56 2074.65 172.437 2078.42 169.693C2082.2 166.949 2085.87 164.308 2086.58 163.824C2087.82 162.975 2087.84 162.77 2087.25 158.017C2086.78 154.309 2086.81 152.551 2087.34 150.914C2087.95 149.048 2087.69 146.118 2085.52 130.37C2082.66 109.735 2082.16 105.7 2075.07 46.8338C2072.29 23.699 2068.62 -8.42477 2066.92 -24.5524C2065.22 -40.68 2063.33 -57.3416 2062.73 -61.5782C2062.12 -65.8147 2061.13 -75.278 2060.51 -82.6078C2059.11 -99.3362 2057.56 -113.435 2057.26 -112.08C2057.14 -111.511 2056.96 -111.046 2056.86 -111.046C2056.77 -111.047 2054.95 -112.232 2052.82 -113.679C2045.28 -118.815 2037.07 -120.796 2028.32 -119.589C2022.4 -118.77 2013.56 -116.049 2010.14 -113.986C2000.28 -108.044 1996.06 -107.605 1985.22 -111.398C1979.45 -113.417 1978.46 -113.609 1977.25 -112.945C1974.59 -111.491 1971.36 -112.02 1965.66 -114.847C1955.94 -119.661 1953.69 -119.679 1948.66 -114.978C1943.62 -110.266 1937.8 -109.513 1927.1 -112.188C1919.31 -114.139 1917.06 -114.197 1912.63 -112.559C1909.5 -111.402 1908.36 -111.29 1903.16 -111.622C1899.91 -111.83 1894.63 -112.641 1891.42 -113.426L1885.58 -114.853L1884.21 -117.729C1881.54 -123.365 1880.03 -123.977 1876.48 -120.865C1871.32 -116.345 1870.11 -116.074 1867.3 -118.806C1863.03 -122.95 1860.42 -123.428 1852.39 -121.542C1844.78 -119.756 1844.61 -119.754 1838.75 -121.351C1832.2 -123.137 1822.46 -123.213 1811.32 -121.565C1800.82 -120.012 1797.75 -119.452 1793.61 -118.333C1789.48 -117.215 1786.44 -117.953 1784.57 -120.529C1782.88 -122.853 1780.34 -124.21 1778.65 -123.689C1777.93 -123.468 1775.86 -122.136 1774.04 -120.727C1770.37 -117.879 1768.34 -117.526 1766.63 -119.437C1766.02 -120.126 1764.72 -121.103 1763.74 -121.608C1762.77 -122.113 1760.03 -123.96 1757.66 -125.712C1752.24 -129.713 1750.18 -130.171 1745.46 -128.426C1735.45 -124.722 1735.13 -124.648 1732.36 -125.409C1730.02 -126.049 1729.49 -125.99 1727.25 -124.845C1725.01 -123.702 1723.8 -123.568 1715.88 -123.582C1706.21 -123.6 1706.3 -123.625 1699.7 -118.91C1698.62 -118.133 1696.28 -117.088 1694.52 -116.586C1692.75 -116.084 1690.38 -114.866 1689.24 -113.88C1688.11 -112.894 1686.91 -112.255 1686.59 -112.46C1685 -113.455 1681.92 -109.371 1680.82 -104.819L1680.39 -103.045L1679.83 -105.555C1679.31 -107.87 1679.15 -108.038 1677.73 -107.704C1674.88 -107.04 1671.46 -105.073 1668.76 -102.547C1666.63 -100.549 1664.71 -99.5608 1659.28 -97.6448C1647.56 -93.5175 1645.96 -93.3097 1632.14 -94.1267C1613.69 -95.218 1607.86 -95.1396 1604.28 -93.7543C1600.52 -92.2932 1599.18 -92.3069 1590.22 -93.8975C1586.23 -94.6062 1582.3 -95.0239 1581.49 -94.8254C1580.35 -94.5472 1579.53 -93.4251 1577.91 -89.9259C1575.32 -84.3236 1574.45 -83.5884 1572.62 -85.4481C1571.73 -86.3482 1571.59 -86.3272 1570.77 -85.1637C1569.56 -83.464 1567.05 -83.5667 1564.57 -85.4174C1563.47 -86.2377 1561.15 -87.6174 1559.42 -88.4837C1556.64 -89.8692 1555.75 -90.0251 1552.04 -89.7826C1545.54 -89.358 1532.53 -84.9949 1519.74 -78.9556C1504.55 -71.7805 1502.87 -71.3358 1489.48 -70.9419C1477.55 -70.591 1472.83 -70.6354 1452.84 -71.2858C1445.53 -71.524 1438.58 -72.0192 1437.4 -72.3871C1435.51 -72.9738 1434.83 -72.8673 1431.85 -71.5244C1428.25 -69.9006 1425.7 -69.6177 1423.84 -70.634C1423.21 -70.9753 1422.7 -71.0265 1422.69 -70.7489C1422.69 -70.4712 1421.82 -69.1287 1420.76 -67.7661C1417.71 -63.8372 1414.48 -63.4573 1404.15 -65.8142C1401.03 -66.5246 1399.27 -67.3827 1396.39 -69.5977C1390.44 -74.1678 1383.96 -76.1697 1374.85 -76.2552C1368.09 -76.3183 1359.85 -77.3899 1356.29 -78.6696C1354.53 -79.3023 1350.47 -80.0179 1347.29 -80.2593C1344.1 -80.5007 1337.15 -81.389 1331.84 -82.2327L1322.19 -83.7678L1320.18 -81.4462C1314.88 -75.3191 1308.83 -75.9342 1298.76 -83.6252L1294.44 -86.9188L1291.38 -85.6042C1287.12 -83.775 1280.07 -83.4966 1272.42 -84.8564L1266.46 -85.9149L1263.91 -83.5073C1262.5 -82.1835 1260.26 -80.5483 1258.92 -79.8741C1254.35 -77.575 1247.78 -78.5888 1242.5 -82.4095C1240.84 -83.6038 1240.7 -83.613 1238.83 -82.6568C1235.74 -81.0813 1231.24 -81.4719 1224.03 -83.9388C1220.54 -85.1346 1217.17 -86.116 1216.53 -86.12C1215.9 -86.124 1215.08 -86.6855 1214.73 -87.3674C1213.65 -89.4171 1209.97 -93.284 1208.22 -94.2024C1206.14 -95.2994 1202.03 -95.3287 1198.97 -94.2681C1196.82 -93.5226 1196.13 -93.5607 1192 -94.648C1187.68 -95.7845 1187.26 -95.8001 1184.9 -94.9116C1183.51 -94.3922 1182.06 -93.5837 1181.67 -93.115C1181.27 -92.6462 1180.22 -92.2674 1179.33 -92.273C1178.43 -92.2786 1176.43 -91.7317 1174.89 -91.0577L1172.07 -89.8327L1170.4 -91.0858C1169.48 -91.7753 1167.99 -92.3446 1167.08 -92.3503C1166.18 -92.3566 1161.32 -92.9193 1156.28 -93.6014C1144.9 -95.1426 1145.39 -95.152 1144.56 -93.37C1143.06 -90.1258 1139.44 -90.0502 1135.92 -93.1903C1133.99 -94.9079 1133.68 -94.9927 1130.59 -94.6267C1127.62 -94.2741 1127.13 -94.3867 1125.26 -95.8358C1124.12 -96.7149 1121.67 -98.154 1119.81 -99.0335C1115.1 -101.261 1108.13 -101.306 1102.53 -99.1448C1100.41 -98.3269 1095.81 -96.5691 1092.3 -95.2384L1085.92 -92.8192L1081.95 -94.0861C1075.68 -96.0873 1067.41 -96.3149 1055.81 -94.804C1048.46 -93.846 1042.62 -93.5179 1032.16 -93.4733L1018.27 -93.4142L1016.22 -94.9793C1015.08 -95.8394 1012.26 -98.3245 1009.94 -100.501C1004.51 -105.605 1001.18 -107.272 996.492 -107.231C984.141 -107.123 978.94 -107.239 975.833 -107.693C973.332 -108.057 971.791 -107.991 970.508 -107.463C968.139 -106.489 965.612 -107.522 963.507 -110.322L961.983 -112.349L954.425 -111.552C948.109 -110.886 946.057 -110.886 941.941 -111.553C937.638 -112.25 936.359 -112.229 931.841 -111.392C925.641 -110.241 922.547 -110.201 920.57 -111.246C919.76 -111.675 918.001 -111.925 916.661 -111.804C913.767 -111.543 911.815 -112.466 906.479 -116.615C901.662 -120.362 900.38 -120.851 896.487 -120.431C893.68 -120.128 892.971 -120.296 890.147 -121.938C886.469 -124.076 885.195 -123.932 883.461 -121.18C881.759 -118.479 876.843 -113.88 874.886 -113.158C872.001 -112.094 870.211 -112.48 863.946 -115.518C860.594 -117.144 856.824 -118.655 855.568 -118.875C851.991 -119.504 847.367 -117.898 843.913 -114.826C841.69 -112.849 840.542 -112.235 839.257 -112.336C837.755 -112.454 837.219 -111.98 834.76 -108.359C831.406 -103.419 827.429 -99.8479 825.269 -99.8372C824.417 -99.8324 822.443 -100.404 820.883 -101.107C817.094 -102.814 810.805 -102.473 799.633 -99.9534C791.096 -98.0278 782.68 -97.4679 777.934 -98.5093C775.789 -98.9798 775.745 -98.9522 775.351 -96.9242C774.88 -94.4934 775.167 -94.4822 764.484 -97.3569C753.975 -100.184 748.596 -99.8061 743.383 -95.8742C741.056 -94.1199 740.742 -94.1094 736.748 -95.6588C733.376 -96.967 731.997 -96.8353 729.589 -94.9755C728.35 -94.0184 727.566 -93.912 724.401 -94.2716L720.673 -94.6951L718.623 -92.4182C716.282 -89.8186 716.275 -89.8121 711.478 -85.5283C707.53 -82.0029 707.625 -82.026 697.272 -82.0654C692.277 -82.0843 691.288 -82.3172 681.055 -85.8794C667.293 -90.6714 662.358 -91.3008 658.62 -88.7408C657.292 -87.8315 655.136 -87.0008 653.707 -86.8488C651.501 -86.6139 650.405 -86.9801 645.531 -89.5805C641.654 -91.6496 639.641 -92.4211 639.065 -92.0606C638.605 -91.7729 637.305 -91.5395 636.178 -91.5412C634.391 -91.5447 633.533 -92.1581 629.511 -96.31L624.894 -101.075L616.497 -101.128C609.087 -101.174 607.826 -101.329 605.767 -102.444C604.484 -103.14 602.771 -104.062 601.961 -104.493C601.151 -104.925 598.29 -105.552 595.603 -105.887C589.598 -106.636 587.835 -107.845 584.627 -113.422C581.648 -118.6 578.304 -121.48 571.03 -125.132C564.328 -128.497 558.146 -130.237 543.331 -132.925L533.295 -134.747L524.69 -139.253C513.925 -144.89 508.265 -146.471 503.305 -145.224Z" fill="#212121"/>
</svg>
