<svg width="85" height="69" viewBox="0 0 85 69" fill="none" xmlns="http://www.w3.org/2000/svg">
<path d="M0.765625 68.1094V51.0938C0.765625 45.375 1.70312 39.4219 3.57812 33.2344C5.54688 26.9531 8.35938 20.9531 12.0156 15.2344C15.6719 9.42188 20.0781 4.40625 25.2344 0.1875L40 10.4531C35.6875 16.6406 32.3594 23.0156 30.0156 29.5781C27.6719 36.0469 26.5 43.0781 26.5 50.6719V68.1094H0.765625ZM45.0625 68.1094V51.0938C45.0625 45.375 46 39.4219 47.875 33.2344C49.8438 26.9531 52.6562 20.9531 56.3125 15.2344C59.9688 9.42188 64.375 4.40625 69.5312 0.1875L84.2969 10.4531C79.9844 16.6406 76.6562 23.0156 74.3125 29.5781C71.9688 36.0469 70.7969 43.0781 70.7969 50.6719V68.1094H45.0625Z" fill="#EB2A41"/>
</svg>
