<svg width="69" height="62" viewBox="0 0 69 62" fill="none" xmlns="http://www.w3.org/2000/svg">
<path d="M27.936 46.944C27.936 51.552 26.592 55.2 23.904 57.888C21.408 60.384 18.144 61.632 14.112 61.632C8.16 61.632 4.128 58.944 2.016 53.568C0.672 50.304 0 46.272 0 41.472C0.192 33.024 2.208 25.248 6.048 18.144C9.888 10.848 16.416 4.8 25.632 0C26.016 0.576004 26.784 1.72801 27.936 3.45601C29.28 5.18401 30.144 6.432 30.528 7.19999C24.384 12.384 20.544 16.896 19.008 20.736C17.472 24.384 16.608 28.32 16.416 32.544C19.872 32.928 22.656 34.368 24.768 36.864C26.88 39.36 27.936 42.72 27.936 46.944ZM65.952 46.944C65.952 51.552 64.608 55.2 61.92 57.888C59.232 60.384 55.968 61.632 52.128 61.632C46.176 61.632 42.144 58.944 40.032 53.568C38.496 49.728 37.824 45.696 38.016 41.472C38.016 33.024 39.936 25.248 43.776 18.144C47.616 10.848 54.24 4.8 63.648 0C64.032 0.576004 64.8 1.72801 65.952 3.45601C67.296 5.18401 68.16 6.432 68.544 7.19999C65.472 9.88799 62.976 12.288 61.056 14.4C59.328 16.512 57.984 18.624 57.024 20.736C56.064 22.656 55.392 24.576 55.008 26.496C54.624 28.416 54.336 30.432 54.144 32.544C57.6 32.928 60.384 34.368 62.496 36.864C64.8 39.36 65.952 42.72 65.952 46.944Z" fill="#FFA800"/>
</svg>
