<svg width="22" height="16" viewBox="0 0 22 16" fill="none" xmlns="http://www.w3.org/2000/svg">
<path d="M20.3454 0.249023H1.65455C1.47832 0.24923 1.30936 0.319348 1.18477 0.443989C1.06018 0.568629 0.990128 0.73761 0.98999 0.913844V2.25128C0.98999 2.3129 1.05681 2.38362 1.11141 2.41222L10.9358 8.0238C10.9609 8.03819 10.9895 8.04563 11.0184 8.04538C11.0481 8.04547 11.0772 8.03756 11.1027 8.02251L20.6301 2.41768C20.6837 2.38778 20.8256 2.30874 20.8789 2.27234C20.9434 2.2284 21.01 2.18862 21.01 2.10984V0.913584C21.0098 0.737395 20.9397 0.568482 20.8151 0.443897C20.6905 0.319313 20.5216 0.24923 20.3454 0.249023Z" fill="#EB2A41"/>
<path d="M20.9271 4.26809C20.9015 4.2535 20.8725 4.24591 20.8431 4.2461C20.8136 4.24628 20.7848 4.25422 20.7594 4.26913L15.3678 7.44139C15.3463 7.45391 15.3279 7.4711 15.314 7.4917C15.3 7.5123 15.2909 7.53576 15.2873 7.56037C15.2837 7.58497 15.2856 7.61007 15.293 7.6338C15.3004 7.65754 15.3131 7.67931 15.3301 7.69749L20.7225 13.5103C20.7379 13.5271 20.7567 13.5405 20.7776 13.5496C20.7985 13.5587 20.8211 13.5634 20.8439 13.5633C20.8879 13.5633 20.9301 13.5458 20.9613 13.5146C20.9924 13.4835 21.0099 13.4413 21.01 13.3972V4.41239C21.0101 4.38316 21.0025 4.35442 20.988 4.32908C20.9734 4.30374 20.9524 4.2827 20.9271 4.26809Z" fill="#EB2A41"/>
<path d="M13.8139 8.50616C13.7883 8.47828 13.7539 8.46003 13.7165 8.45445C13.6791 8.44886 13.6409 8.45629 13.6082 8.47548L11.4471 9.74714C11.3205 9.8203 11.177 9.85927 11.0308 9.86023C10.8846 9.86118 10.7406 9.82409 10.613 9.7526L8.71115 8.66606C8.68044 8.64857 8.64497 8.64131 8.60986 8.64533C8.57476 8.64935 8.54184 8.66444 8.51589 8.68842L1.29361 15.3876C1.27467 15.4053 1.26014 15.4272 1.25116 15.4515C1.24217 15.4758 1.239 15.5019 1.24187 15.5276C1.24475 15.5534 1.25361 15.5781 1.26774 15.5998C1.28187 15.6216 1.30087 15.6397 1.32325 15.6528C1.43557 15.7188 1.54399 15.7503 1.65423 15.7503H20.154C20.1864 15.7503 20.2181 15.7409 20.2451 15.7231C20.2721 15.7053 20.2934 15.6799 20.3061 15.6502C20.3191 15.6206 20.3231 15.5878 20.3176 15.556C20.3122 15.5242 20.2975 15.4946 20.2754 15.471L13.8139 8.50616Z" fill="#EB2A41"/>
<path d="M6.92683 7.8959C6.94596 7.87822 6.96066 7.85628 6.96975 7.83187C6.97884 7.80745 6.98206 7.78124 6.97915 7.75535C6.97624 7.72946 6.96728 7.70462 6.953 7.68283C6.93872 7.66105 6.91951 7.64292 6.89693 7.62992L1.23777 4.39761C1.21252 4.38327 1.18394 4.37581 1.1549 4.37598C1.12585 4.37615 1.09737 4.38394 1.07228 4.39858C1.0472 4.41321 1.02639 4.43418 1.01195 4.45938C0.997511 4.48457 0.989939 4.51312 0.989993 4.54216V13.0234C0.98981 13.0558 0.999129 13.0875 1.0168 13.1146C1.03447 13.1418 1.05971 13.1632 1.0894 13.1761C1.11909 13.1891 1.15192 13.193 1.18384 13.1875C1.21576 13.182 1.24536 13.1672 1.26897 13.145L6.92683 7.8959Z" fill="#EB2A41"/>
</svg>
