<svg width="50" height="66" viewBox="0 0 50 66" fill="none" xmlns="http://www.w3.org/2000/svg">
<path d="M25 0C11.3545 0 0.25 11.1815 0.25 24.9287C0.25 44.462 22.6735 64.6305 23.6278 65.4775C24.021 65.8268 24.5105 66 25 66C25.4895 66 25.979 65.8268 26.3722 65.4803C27.3265 64.6305 49.75 44.462 49.75 24.9287C49.75 11.1815 38.6455 0 25 0ZM25 38.5C17.4183 38.5 11.25 32.3317 11.25 24.75C11.25 17.1683 17.4183 11 25 11C32.5817 11 38.75 17.1683 38.75 24.75C38.75 32.3317 32.5817 38.5 25 38.5Z" fill="#EB2A41"/>
</svg>
