<svg width="1920" height="222" viewBox="0 0 1920 222" fill="none" xmlns="http://www.w3.org/2000/svg">
<g filter="url(#filter0_d_204_474)">
<path d="M2.58065e-06 210.999L61.4167 196.548C290.67 142.606 527.649 129.58 761.433 158.069L1108.37 200.349C1381.89 233.68 1659.4 204.497 1920 114.999V114.999L1920 1.0124e-08L2.52278e-06 28.5L2.58065e-06 210.999Z" fill="white"/>
<path d="M2.58065e-06 210.999L61.4167 196.548C290.67 142.606 527.649 129.58 761.433 158.069L1108.37 200.349C1381.89 233.68 1659.4 204.497 1920 114.999V114.999L1920 1.0124e-08L2.52278e-06 28.5L2.58065e-06 210.999Z" fill="url(#paint0_linear_204_474)"/>
</g>
<defs>
<filter id="filter0_d_204_474" x="-4" y="0" width="1928" height="221.72" filterUnits="userSpaceOnUse" color-interpolation-filters="sRGB">
<feFlood flood-opacity="0" result="BackgroundImageFix"/>
<feColorMatrix in="SourceAlpha" type="matrix" values="0 0 0 0 0 0 0 0 0 0 0 0 0 0 0 0 0 0 127 0" result="hardAlpha"/>
<feOffset dy="4"/>
<feGaussianBlur stdDeviation="2"/>
<feComposite in2="hardAlpha" operator="out"/>
<feColorMatrix type="matrix" values="0 0 0 0 0 0 0 0 0 0 0 0 0 0 0 0 0 0 0.25 0"/>
<feBlend mode="normal" in2="BackgroundImageFix" result="effect1_dropShadow_204_474"/>
<feBlend mode="normal" in="SourceGraphic" in2="effect1_dropShadow_204_474" result="shape"/>
</filter>
<linearGradient id="paint0_linear_204_474" x1="986" y1="-737.002" x2="980" y2="222.998" gradientUnits="userSpaceOnUse">
<stop stop-color="white"/>
<stop offset="1" stop-color="white" stop-opacity="0"/>
</linearGradient>
</defs>
</svg>
