<svg width="21" height="19" viewBox="0 0 21 19" fill="none" xmlns="http://www.w3.org/2000/svg">
<path d="M20.1197 3.90179H3.97768L3.73774 1.34988C3.69849 0.932558 3.33214 0.612793 2.89327 0.612793H1.17061C0.702353 0.612793 0.322754 0.975188 0.322754 1.42223C0.322754 1.86927 0.702353 2.23166 1.17061 2.23166H2.11812C2.63592 7.73897 1.29767 -6.49538 3.09328 12.6035C3.16248 13.3511 3.58556 14.1622 4.3144 14.7134C3.00034 16.3155 4.20099 18.6773 6.33853 18.6773C8.11266 18.6773 9.36398 16.9881 8.75558 15.3882H13.396C12.7884 16.986 14.037 18.6773 15.8131 18.6773C17.2305 18.6773 18.3836 17.5764 18.3836 16.2233C18.3836 14.8702 17.2305 13.7693 15.8131 13.7693H6.34426C5.70021 13.7693 5.13897 13.3983 4.89672 12.8579L18.4467 12.0976C18.8166 12.0769 19.1296 11.8291 19.2195 11.4859L20.9422 4.90753C21.0758 4.39743 20.6713 3.90179 20.1197 3.90179ZM6.33853 17.0584C5.85622 17.0584 5.46378 16.6838 5.46378 16.2233C5.46378 15.7628 5.85622 15.3882 6.33853 15.3882C6.82088 15.3882 7.21332 15.7628 7.21332 16.2233C7.21332 16.6838 6.82088 17.0584 6.33853 17.0584ZM15.8131 17.0584C15.3307 17.0584 14.9383 16.6838 14.9383 16.2233C14.9383 15.7628 15.3307 15.3882 15.8131 15.3882C16.2954 15.3882 16.6878 15.7628 16.6878 16.2233C16.6878 16.6838 16.2954 17.0584 15.8131 17.0584ZM17.7254 10.5164L4.66849 11.249L4.12989 5.52062H19.0338L17.7254 10.5164Z" fill="white"/>
</svg>
