<svg width="31" height="32" viewBox="0 0 31 32" fill="none" xmlns="http://www.w3.org/2000/svg">
<path d="M7.45136 13.0625H5.45951C5.20938 13.0625 4.96948 13.1617 4.79283 13.3381C4.61618 13.5146 4.5174 13.7538 4.51822 14.003L4.53209 21.1246C4.53209 21.6423 4.95354 22.0621 5.47338 22.0621C5.99323 22.0621 6.41468 21.6423 6.41468 21.1246V18.9622C6.79954 18.9603 7.2107 18.9586 7.45136 18.9586C9.10528 18.9586 10.4509 17.6361 10.4509 16.0106C10.4509 14.385 9.10528 13.0625 7.45136 13.0625ZM7.45136 17.0836C7.20857 17.0836 6.7959 17.0853 6.40953 17.0873C6.40752 16.6882 6.40577 16.2584 6.40577 16.0106C6.40577 15.7985 6.4047 15.3547 6.40357 14.9375H7.4513C8.05674 14.9375 8.56824 15.4289 8.56824 16.0106C8.56824 16.5923 8.0568 17.0836 7.45136 17.0836Z" fill="#EEEEEE"/>
<path d="M15.458 13.0625H13.4919C13.242 13.0625 13.0022 13.1615 12.8257 13.3377C12.6491 13.5139 12.5501 13.7528 12.5506 14.0017C12.5506 14.0018 12.5646 20.8921 12.5647 20.9171C12.5656 21.1658 12.6656 21.4039 12.8428 21.5791C13.0192 21.7535 13.2576 21.8512 13.506 21.8512H13.5095C13.569 21.851 14.9713 21.8457 15.5319 21.8359C17.6589 21.7989 19.2026 19.9573 19.2026 17.4569C19.2026 14.8285 17.6977 13.0625 15.458 13.0625ZM15.4991 19.9613C15.2553 19.9655 14.8358 19.9689 14.4441 19.9714C14.4415 19.1571 14.4363 15.7837 14.4349 14.9375H15.458C17.1857 14.9375 17.32 16.8659 17.32 17.4569C17.32 18.6877 16.7569 19.9394 15.4991 19.9613Z" fill="#EEEEEE"/>
<path d="M25.4064 14.8651C25.9262 14.8651 26.3477 14.4454 26.3477 13.9276C26.3477 13.4099 25.9262 12.9901 25.4064 12.9901H22.5283C22.0085 12.9901 21.587 13.4099 21.587 13.9276V21C21.587 21.5177 22.0085 21.9375 22.5283 21.9375C23.0482 21.9375 23.4696 21.5177 23.4696 21V18.3344H25.1778C25.6976 18.3344 26.1191 17.9146 26.1191 17.3969C26.1191 16.8791 25.6976 16.4594 25.1778 16.4594H23.4696V14.8651H25.4064Z" fill="#EEEEEE"/>
<path d="M28.1761 9.0625H27.4858V8.79506C27.4858 7.58994 27.0274 6.44463 26.1949 5.57L22.285 1.46244C21.4004 0.533063 20.1555 0 18.8695 0H6.33806C4.78097 0 3.51417 1.26169 3.51417 2.8125V9.0625H2.82389C1.2668 9.0625 0 10.3242 0 11.875V23.125C0 24.6758 1.2668 25.9375 2.82389 25.9375H3.51417V29.1875C3.51417 30.7383 4.78097 32 6.33806 32H24.6619C26.219 32 27.4858 30.7383 27.4858 29.1875V25.9375H28.1761C29.7332 25.9375 31 24.6758 31 23.125V11.875C31 10.3242 29.7332 9.0625 28.1761 9.0625ZM5.39676 2.8125C5.39676 2.29556 5.81903 1.875 6.33806 1.875H18.8695C19.6411 1.875 20.388 2.19481 20.9188 2.7525L24.8287 6.86006C25.3282 7.38481 25.6032 8.072 25.6032 8.79506V9.0625H5.39676V2.8125ZM25.6032 29.1875C25.6032 29.7044 25.181 30.125 24.6619 30.125H6.33806C5.81903 30.125 5.39676 29.7044 5.39676 29.1875V25.9375H25.6032V29.1875ZM29.1174 23.125C29.1174 23.6419 28.6951 24.0625 28.1761 24.0625H2.82389C2.30486 24.0625 1.88259 23.6419 1.88259 23.125V11.875C1.88259 11.3581 2.30486 10.9375 2.82389 10.9375H28.1761C28.6951 10.9375 29.1174 11.3581 29.1174 11.875V23.125Z" fill="#EEEEEE"/>
</svg>
